<svg width="19" height="25" viewBox="0 0 19 25" fill="none" xmlns="http://www.w3.org/2000/svg">
<path d="M9.405 15.9375C10.4121 15.9375 11.3202 15.6875 12.1295 15.1875C12.9387 14.6875 13.5883 14.0208 14.0781 13.1875C13.4119 12.6458 12.6848 12.2396 11.8969 11.9688C11.1089 11.6979 10.2762 11.5625 9.39868 11.5625C8.52117 11.5625 7.69055 11.6979 6.9068 11.9688C6.12305 12.2396 5.39808 12.6458 4.73189 13.1875C5.22173 14.0208 5.87128 14.6875 6.68052 15.1875C7.48978 15.6875 8.39794 15.9375 9.405 15.9375ZM9.40761 9.6875C9.97409 9.6875 10.4582 9.47303 10.8598 9.04409C11.2615 8.61518 11.4623 8.09955 11.4623 7.49722C11.4623 6.89491 11.2606 6.38021 10.8572 5.95312C10.4538 5.52604 9.96888 5.3125 9.40238 5.3125C8.83591 5.3125 8.35184 5.52697 7.95016 5.95591C7.54849 6.38482 7.34766 6.90045 7.34766 7.50278C7.34766 8.10509 7.54936 8.61979 7.95278 9.04688C8.35618 9.47396 8.84112 9.6875 9.40761 9.6875ZM9.405 22.5312C12.011 20.0104 13.9361 17.724 15.1803 15.6719C16.4245 13.6198 17.0466 11.8125 17.0466 10.25C17.0466 7.79604 16.3089 5.78672 14.8337 4.22203C13.3584 2.65734 11.5489 1.875 9.405 1.875C7.26111 1.875 5.45155 2.65734 3.97632 4.22203C2.50106 5.78672 1.76344 7.79604 1.76344 10.25C1.76344 11.8125 2.40023 13.6198 3.67383 15.6719C4.94742 17.724 6.85781 20.0104 9.405 22.5312ZM9.405 25C6.25041 22.1458 3.89426 19.4948 2.33655 17.0469C0.778852 14.599 0 12.3333 0 10.25C0 7.125 0.945398 4.63542 2.8362 2.78125C4.72699 0.927083 6.91659 0 9.405 0C11.8934 0 14.083 0.927083 15.9738 2.78125C17.8646 4.63542 18.81 7.125 18.81 10.25C18.81 12.3333 18.0311 14.599 16.4734 17.0469C14.9157 19.4948 12.5596 22.1458 9.405 25Z" fill="#E7E7E7"/>
</svg>
