<svg width="101" height="100" viewBox="0 0 101 100" fill="none" xmlns="http://www.w3.org/2000/svg">
<path d="M47.9378 15.6703C44.0954 16.5331 41.0619 18.8655 39.3092 22.3574C38.1093 24.7303 37.961 25.8493 37.961 32.3612V37.4574H32.8782C26.3529 37.4574 25.2339 37.6057 22.861 38.8056C19.7197 40.3965 17.5625 42.9177 16.457 46.3556C16.1469 47.3129 16.0795 47.8117 16.0121 49.4296C15.9716 50.6295 16.0121 51.6676 16.1065 52.1934C17.0367 57.0605 20.4881 60.8085 25.2743 62.1028C26.5551 62.4398 26.636 62.4533 32.2715 62.5072L37.961 62.5612V67.6305C37.961 74.1289 38.1093 75.2614 39.3092 77.6342C41.0754 81.1531 44.1223 83.499 47.9782 84.3079C49.1647 84.564 51.8341 84.564 53.0206 84.3079C57.7528 83.3102 61.393 79.8453 62.5929 75.2209C62.8356 74.2772 62.9434 73.4143 62.9973 72.0391C63.0648 70.246 63.0513 70.1381 62.7682 69.7741C62.3907 69.2888 61.6087 69.2618 61.1907 69.7202C60.9481 69.9764 60.9076 70.246 60.8402 71.8369C60.7458 74.0614 60.5166 75.0456 59.7347 76.6231C58.1438 79.8183 55.0294 82.0024 51.5645 82.326C47.2232 82.744 43.2056 80.5194 41.2641 76.6231C40.0912 74.2637 40.1856 76.5422 40.1856 49.9958C40.1856 23.4495 40.0912 25.7549 41.2641 23.3686C42.8146 20.2138 45.9694 17.9892 49.4073 17.6656C53.7756 17.2477 57.7932 19.4722 59.7347 23.3686C60.8941 25.701 60.7998 23.827 60.8807 46.3017C60.9346 62.332 60.9885 66.3092 61.1233 66.471C61.5548 66.9968 62.6064 66.8485 62.8895 66.2283C62.9704 66.0396 63.0378 65.1767 63.0378 64.2195V62.5612L68.7407 62.5072C74.3628 62.4533 74.4437 62.4398 75.7245 62.1028C80.4028 60.8355 83.8138 57.2357 84.8115 52.517C85.0676 51.3306 85.0676 48.6611 84.8115 47.4747C83.6924 42.1627 79.5939 38.3742 74.1606 37.5922C72.6236 37.3765 70.4395 37.417 70.0755 37.6731C69.6036 37.9967 69.4823 38.4686 69.698 39.0079C69.9407 39.5741 69.9811 39.5741 72.4079 39.6685C74.619 39.7494 75.4683 39.9516 77.1266 40.7605C79.6208 42.0009 81.4005 44.0232 82.3712 46.7197C82.7757 47.8522 82.7891 48.0005 82.7891 49.9958C82.7891 51.9912 82.7757 52.1395 82.3712 53.272C81.4005 55.9684 79.6208 57.9907 77.1266 59.2311C75.0504 60.2557 74.9021 60.2827 68.6059 60.3366L63.0378 60.3906V50.0093V39.6146H64.7231C66.2331 39.6146 66.4353 39.5876 66.678 39.3449C67.0959 38.927 67.042 38.0911 66.5971 37.7405C66.2735 37.4844 66.0578 37.4574 64.6422 37.4574H63.0378V32.3612C63.0378 26.0246 62.8895 24.8921 61.8244 22.6675C60.0582 18.9464 56.9978 16.5197 53.0206 15.6838C51.9015 15.4411 48.9894 15.4411 47.9378 15.6703ZM37.961 50.0093V60.3906L32.4064 60.3366C26.0967 60.2827 25.9484 60.2557 23.8722 59.2311C21.378 57.9907 19.5983 55.9684 18.6276 53.272C18.2231 52.1395 18.2097 51.9912 18.2097 49.9958C18.2097 48.0005 18.2231 47.8522 18.6276 46.7197C19.7736 43.5514 22.133 41.2189 25.2743 40.1539C26.636 39.6955 27.3506 39.655 32.8108 39.628L37.961 39.6146V50.0093Z" fill="#CECECE"/>
<path d="M27.8764 42.2164C27.3236 42.7961 27.5933 43.8073 28.3348 43.9826C29.3999 44.2522 30.1684 42.9984 29.3999 42.2434C28.9684 41.7985 28.2809 41.785 27.8764 42.2164Z" fill="#CECECE"/>
<path d="M32.0418 42.1359C31.8935 42.2707 31.7182 42.5673 31.6777 42.81C31.6103 43.174 31.6643 43.3088 32.0148 43.6728C32.3788 44.0234 32.5136 44.0773 32.8642 44.0099C33.1068 43.9694 33.4035 43.8211 33.5383 43.6998C33.8753 43.3897 33.8618 42.5268 33.5113 42.1763C33.1743 41.8393 32.4327 41.8258 32.0418 42.1359Z" fill="#CECECE"/>
<path d="M23.764 46.8678C23.0765 47.6228 23.5618 48.7148 24.5595 48.6879C24.9235 48.6744 25.1527 48.58 25.3145 48.3778C25.6381 47.9733 25.6246 47.2318 25.2875 46.8947C24.937 46.5442 24.0741 46.5307 23.764 46.8678Z" fill="#CECECE"/>
<path d="M27.8499 46.8951C27.5667 47.1783 27.4993 47.8254 27.715 48.2434C27.8903 48.5804 28.5914 48.7961 28.9824 48.6478C29.3733 48.4995 29.7374 48.0142 29.7374 47.6232C29.7374 47.4614 29.616 47.1783 29.4542 46.976C29.1037 46.5311 28.2678 46.4772 27.8499 46.8951Z" fill="#CECECE"/>
<path d="M31.9889 46.8678C31.3013 47.6228 31.7867 48.7148 32.7843 48.6879C33.1484 48.6744 33.3776 48.58 33.5393 48.3778C33.8629 47.9733 33.8494 47.2318 33.5124 46.8947C33.1618 46.5442 32.299 46.5307 31.9889 46.8678Z" fill="#CECECE"/>
<path d="M24.1147 51.344C23.0226 51.7754 23.3327 53.3663 24.5056 53.3663C25.1663 53.3663 25.5572 52.9888 25.5572 52.3687C25.5572 51.5867 24.8292 51.0744 24.1147 51.344Z" fill="#CECECE"/>
<path d="M28.175 51.3977C27.7166 51.5999 27.5818 51.8291 27.5818 52.4358C27.5818 53.3391 28.8896 53.7436 29.4558 53.0156C29.8198 52.5572 29.8198 52.1123 29.4423 51.6943C29.0379 51.2629 28.6873 51.182 28.175 51.3977Z" fill="#CECECE"/>
<path d="M32.3395 51.344C31.2475 51.7754 31.5575 53.3663 32.7305 53.3663C33.3911 53.3663 33.7821 52.9888 33.7821 52.3687C33.7821 51.5867 33.0541 51.0744 32.3395 51.344Z" fill="#CECECE"/>
<path d="M28.1605 56.0629C27.5269 56.319 27.3785 57.3032 27.8909 57.7886C28.3223 58.1931 28.9829 58.1796 29.4009 57.7481C29.9267 57.2358 29.7649 56.373 29.1043 56.0764C28.7268 55.9011 28.565 55.9011 28.1605 56.0629Z" fill="#CECECE"/>
<path d="M32.0015 56.3323C31.6644 56.6828 31.6105 56.8176 31.6779 57.1817C31.7858 57.7344 32.2037 58.085 32.7835 58.085C33.4171 58.085 33.7811 57.694 33.7811 57.0199C33.7811 56.6019 33.7002 56.4267 33.4306 56.2109C32.9318 55.82 32.4868 55.8604 32.0015 56.3323Z" fill="#CECECE"/>
<path d="M47.8028 22.991C47.1017 23.2606 46.8725 24.2583 47.3983 24.7841C48.032 25.4177 49.2049 24.9459 49.2049 24.056C49.2049 23.3145 48.4499 22.7483 47.8028 22.991Z" fill="#CECECE"/>
<path d="M52.455 23.018C51.7539 23.3147 51.5517 24.3528 52.118 24.8112C52.5224 25.1347 53.2639 25.1213 53.601 24.7842C53.9515 24.4337 53.965 23.5708 53.6414 23.2607C53.3314 22.9911 52.7921 22.8832 52.455 23.018Z" fill="#CECECE"/>
<path d="M42.7073 27.3861C42.3028 27.8176 42.3163 28.4782 42.7477 28.8961C43.5027 29.6646 44.7565 28.8961 44.4869 27.831C44.2982 27.076 43.2465 26.8064 42.7073 27.3861Z" fill="#CECECE"/>
<path d="M47.3984 27.3459C46.9804 27.7638 47.0344 28.5997 47.4793 28.9503C47.6815 29.1121 47.9646 29.2334 48.1264 29.2334C48.5174 29.2334 49.0028 28.8694 49.1511 28.4784C49.2994 28.0874 49.0836 27.3863 48.7466 27.2111C48.3286 26.9954 47.6815 27.0628 47.3984 27.3459Z" fill="#CECECE"/>
<path d="M52.2111 27.2383C51.6313 27.6832 51.6718 28.5865 52.2785 29.0179C52.6829 29.3145 53.0874 29.2876 53.5188 28.9505C53.9638 28.6 54.0177 27.7641 53.5997 27.3461C53.2896 27.036 52.5616 26.9821 52.2111 27.2383Z" fill="#CECECE"/>
<path d="M56.8777 27.2782C56.2845 27.6962 56.3789 28.7748 57.053 29.0848C57.5383 29.3006 57.8349 29.2736 58.2394 28.95C58.9809 28.3703 58.5225 27.076 57.5653 27.076C57.3496 27.076 57.0395 27.1704 56.8777 27.2782Z" fill="#CECECE"/>
<path d="M42.9914 31.2557C42.3847 31.4984 42.2095 32.5365 42.6813 33.0084C43.0993 33.4263 43.9352 33.3724 44.2857 32.9275C44.6767 32.4286 44.6363 31.9837 44.1779 31.5118C43.7734 31.1074 43.5038 31.0535 42.9914 31.2557Z" fill="#CECECE"/>
<path d="M47.8042 31.2149C47.3458 31.3767 47.1301 31.7138 47.1301 32.2261C47.1301 32.8867 47.5076 33.2777 48.1278 33.2777C48.7884 33.2777 49.2064 32.8867 49.2064 32.2665C49.2064 31.4846 48.5053 30.9588 47.8042 31.2149Z" fill="#CECECE"/>
<path d="M52.1848 31.4307C51.8747 31.6868 51.7938 31.8621 51.8073 32.28C51.8208 32.9137 52.2118 33.2777 52.8724 33.2777C53.4926 33.2777 53.8701 32.8867 53.8701 32.2261C53.8701 31.2824 52.8859 30.824 52.1848 31.4307Z" fill="#CECECE"/>
<path d="M56.8222 31.5115C56.4716 31.8756 56.4177 32.0104 56.4851 32.3609C56.6064 32.9946 56.93 33.2777 57.5367 33.2777C58.1973 33.2777 58.5883 32.9002 58.5883 32.28C58.5883 31.7003 58.2378 31.2824 57.685 31.1745C57.321 31.1071 57.1862 31.161 56.8222 31.5115Z" fill="#CECECE"/>
<path d="M43.8274 38.482C43.2476 38.7786 42.951 39.0752 42.6679 39.6415C42.4387 40.0864 42.4117 40.4639 42.4117 42.8907C42.4117 45.5871 42.4117 45.641 42.7218 45.9242C43.1128 46.2882 43.76 46.3017 44.1779 45.9646C44.488 45.7085 44.5015 45.6545 44.5419 43.1199L44.5824 40.5448L44.9194 40.4235C45.3778 40.2482 55.6377 40.2482 56.0826 40.4235L56.4332 40.5583V49.9958V59.4333L56.0826 59.5681C55.8804 59.649 53.575 59.7029 50.501 59.7029C47.4271 59.7029 45.1217 59.649 44.9194 59.5681L44.5689 59.4333V54.5932C44.5689 51.2766 44.515 49.6318 44.4206 49.4026C44.2318 48.9846 43.6521 48.7419 43.1667 48.8633C42.4117 49.052 42.4117 49.0655 42.4117 54.6876C42.4117 59.5681 42.4252 59.8782 42.6814 60.377C42.8297 60.6602 43.1667 61.0646 43.4499 61.2803L43.9352 61.6578H50.501H57.0668L57.5522 61.2803C57.8353 61.0646 58.1724 60.6602 58.3207 60.377C58.5768 59.8647 58.5903 59.5681 58.5903 49.9958C58.5903 40.4235 58.5768 40.1269 58.3207 39.6145C58.1724 39.3314 57.8353 38.9269 57.5522 38.7112L57.0668 38.3337L50.6493 38.2933C45.0138 38.2663 44.1779 38.2933 43.8274 38.482Z" fill="#CECECE"/>
<path d="M67.4866 42.1763C67.1361 42.5268 67.1226 43.3897 67.4597 43.6998C67.5945 43.8211 67.8911 43.9694 68.1338 44.0099C68.4843 44.0773 68.6191 44.0234 68.9832 43.6728C69.3337 43.3088 69.3876 43.174 69.3202 42.81C69.2798 42.5673 69.1045 42.2707 68.9562 42.1359C68.5652 41.8258 67.8237 41.8393 67.4866 42.1763Z" fill="#CECECE"/>
<path d="M71.5981 42.2434C70.8297 42.9984 71.5981 44.2522 72.6632 43.9826C73.4182 43.7938 73.6879 42.7422 73.1081 42.2029C72.6767 41.7985 72.0161 41.8119 71.5981 42.2434Z" fill="#CECECE"/>
<path d="M67.4874 46.8947C67.1503 47.2318 67.1369 47.9733 67.4604 48.3778C67.6222 48.58 67.8514 48.6744 68.2154 48.6879C69.2131 48.7148 69.6985 47.6228 69.0109 46.8678C68.7008 46.5307 67.8379 46.5442 67.4874 46.8947Z" fill="#CECECE"/>
<path d="M71.5466 46.9757C71.2095 47.4071 71.1826 47.8115 71.4792 48.216C71.7758 48.6474 72.2476 48.7957 72.7465 48.634C73.2184 48.4587 73.4206 48.1621 73.4206 47.5824C73.4206 46.6521 72.1263 46.2341 71.5466 46.9757Z" fill="#CECECE"/>
<path d="M75.7123 46.8947C75.3752 47.2318 75.3617 47.9733 75.6853 48.3778C75.8471 48.58 76.0763 48.6744 76.4403 48.6879C77.438 48.7148 77.9233 47.6228 77.2357 46.8678C76.9256 46.5307 76.0628 46.5442 75.7123 46.8947Z" fill="#CECECE"/>
<path d="M67.9342 51.3034C67.2466 51.4382 66.977 52.5842 67.4893 53.0965C67.8398 53.447 68.7027 53.4605 69.0128 53.1235C69.4172 52.6785 69.4442 52.0988 69.0802 51.7078C68.7431 51.3303 68.4061 51.2225 67.9342 51.3034Z" fill="#CECECE"/>
<path d="M71.99 51.344C71.6125 51.4923 71.262 51.9912 71.262 52.3687C71.262 52.5304 71.3833 52.8136 71.5451 53.0158C71.7608 53.2854 71.9361 53.3663 72.354 53.3663C73.0281 53.3663 73.4191 53.0023 73.4191 52.3552C73.4191 51.9103 73.0551 51.344 72.7585 51.344C72.6911 51.344 72.5562 51.317 72.4484 51.2901C72.354 51.2496 72.1383 51.2766 71.99 51.344Z" fill="#CECECE"/>
<path d="M76.157 51.3034C75.4694 51.4382 75.1998 52.5842 75.7121 53.0965C76.0626 53.447 76.9255 53.4605 77.2356 53.1235C77.64 52.6785 77.667 52.0988 77.303 51.7078C76.9659 51.3303 76.6289 51.2225 76.157 51.3034Z" fill="#CECECE"/>
<path d="M67.5676 56.2109C67.2979 56.4267 67.217 56.6019 67.217 57.0199C67.217 57.694 67.5811 58.085 68.2147 58.085C68.7945 58.085 69.2124 57.7344 69.3203 57.1817C69.3877 56.8176 69.3337 56.6828 68.9967 56.3323C68.5113 55.8604 68.0664 55.82 67.5676 56.2109Z" fill="#CECECE"/>
<path d="M71.8543 56.0762C71.2206 56.3998 71.0993 57.2491 71.5981 57.748C72.2722 58.4356 73.4182 57.9907 73.4182 57.0469C73.4182 56.2515 72.5554 55.7257 71.8543 56.0762Z" fill="#CECECE"/>
<path d="M42.68 66.9834C42.343 67.3204 42.3295 68.062 42.6531 68.4529C42.7744 68.6012 43.071 68.7765 43.3137 68.817C43.6777 68.8844 43.8125 68.8304 44.1631 68.4934C44.6349 68.008 44.6754 67.5631 44.2844 67.0643C43.9339 66.6194 43.098 66.5654 42.68 66.9834Z" fill="#CECECE"/>
<path d="M47.3972 66.9831C47.0331 67.3472 47.0331 68.1965 47.3972 68.5336C48.0847 69.1672 49.2038 68.6549 49.2038 67.7112C49.2038 66.8214 48.0308 66.3495 47.3972 66.9831Z" fill="#CECECE"/>
<path d="M52.1182 66.9562C51.7137 67.2932 51.6868 68.1021 52.0912 68.4931C52.4552 68.8706 53.2102 68.8841 53.6012 68.5336C53.9652 68.1965 53.9652 67.3471 53.6012 66.9831C53.2642 66.6461 52.5227 66.6326 52.1182 66.9562Z" fill="#CECECE"/>
<path d="M56.7158 67.0643C56.3248 67.5631 56.3653 68.008 56.8372 68.4934C57.1877 68.8304 57.3225 68.8844 57.6865 68.817C58.2393 68.7091 58.5898 68.2911 58.5898 67.7114C58.5898 67.0778 58.1989 66.7137 57.5247 66.7137C57.1068 66.7137 56.9315 66.7946 56.7158 67.0643Z" fill="#CECECE"/>
<path d="M42.7461 71.0955C42.3012 71.5269 42.2877 72.2145 42.7191 72.619C43.2989 73.1717 44.31 72.9021 44.4853 72.1606C44.7549 71.0955 43.5011 70.327 42.7461 71.0955Z" fill="#CECECE"/>
<path d="M47.4797 71.0415C46.7382 71.6212 47.1561 72.9155 48.0864 72.9155C48.6661 72.9155 48.9627 72.7133 49.138 72.2414C49.2998 71.7426 49.1515 71.2707 48.72 70.9741C48.3156 70.6775 47.9111 70.7045 47.4797 71.0415Z" fill="#CECECE"/>
<path d="M52.2778 70.9741C51.8463 71.2707 51.698 71.7426 51.8598 72.2414C52.0351 72.7133 52.3317 72.9155 52.9114 72.9155C53.5046 72.9155 53.8687 72.4976 53.8687 71.8504C53.8687 70.9606 52.9788 70.4753 52.2778 70.9741Z" fill="#CECECE"/>
<path d="M57.0108 70.9202C56.3771 71.2303 56.2962 72.3089 56.8759 72.7134C57.6309 73.2392 58.5882 72.7268 58.5882 71.8101C58.5882 71.0011 57.7927 70.5427 57.0108 70.9202Z" fill="#CECECE"/>
<path d="M47.3972 75.2073C47.0331 75.5713 47.0331 76.4207 47.3972 76.7577C48.0847 77.3914 49.2038 76.879 49.2038 75.9353C49.2038 75.0455 48.0308 74.5736 47.3972 75.2073Z" fill="#CECECE"/>
<path d="M52.1182 75.1808C51.7137 75.5178 51.6868 76.3268 52.0912 76.7177C52.4552 77.0952 53.2102 77.1087 53.6012 76.7582C53.9652 76.4211 53.9652 75.5718 53.6012 75.2077C53.2642 74.8707 52.5227 74.8572 52.1182 75.1808Z" fill="#CECECE"/>
</svg>
