<svg width="101" height="100" viewBox="0 0 101 100" fill="none" xmlns="http://www.w3.org/2000/svg">
<path d="M50.4911 84.0031C50.4843 84.0031 50.4775 84.0031 50.4729 84.0031C50.1613 83.9986 49.8633 83.8644 49.6541 83.6346L17.7177 48.7596C17.3515 48.3592 17.3196 47.7565 17.6403 47.3198L29.0584 31.7485C29.0789 31.6825 29.1084 31.6188 29.1425 31.5574C29.3427 31.1935 29.7248 30.9661 30.1411 30.9661H71.8761C72.1081 30.9706 72.3355 31.0297 72.5357 31.1685C72.5584 31.1844 72.5834 31.2026 72.6062 31.2208C72.6813 31.2822 72.7472 31.3527 72.8041 31.4278L85.298 47.5563C85.646 48.0067 85.6096 48.6436 85.2115 49.0484L51.3099 83.6642C51.0893 83.8803 50.7959 84.0031 50.4911 84.0031ZM20.0218 47.9112L50.5184 81.2123L82.887 48.1636L71.9011 33.982L61.1449 48.3979C60.9198 48.6981 60.5604 48.871 60.1851 48.8551C59.8098 48.8392 59.4663 48.639 59.2685 48.3206L50.6321 34.4415L40.6493 47.7929C40.4264 48.0909 40.067 48.2614 39.6963 48.2478C39.3233 48.2341 38.9798 48.0385 38.7797 47.7246L30.107 34.164L20.0218 47.9112ZM52.5609 33.2406L60.317 45.7026L69.6152 33.2406H52.5609ZM32.2131 33.2406L39.8077 45.1158L48.6874 33.2406H32.2131Z" fill="#CECECE"/>
<path d="M83.9218 49.5222H76.7957C76.1679 49.5222 75.6584 49.0127 75.6584 48.3849C75.6584 47.7572 76.1679 47.2477 76.7957 47.2477H83.9218C84.5495 47.2477 85.059 47.7572 85.059 48.3849C85.059 49.0127 84.5495 49.5222 83.9218 49.5222Z" fill="#CECECE"/>
<path d="M73.7279 49.5194H73.5004C72.8726 49.5194 72.3632 49.0099 72.3632 48.3821C72.3632 47.7544 72.8726 47.2449 73.5004 47.2449H73.7279C74.3556 47.2449 74.8651 47.7544 74.8651 48.3821C74.8651 49.0099 74.3556 49.5194 73.7279 49.5194Z" fill="#CECECE"/>
<path d="M69.8294 49.5233H69.5269C68.8991 49.5233 68.3896 49.0138 68.3896 48.386C68.3896 47.7583 68.8991 47.2488 69.5269 47.2488H69.8294C70.4572 47.2488 70.9667 47.7583 70.9667 48.386C70.9667 49.0138 70.4572 49.5233 69.8294 49.5233Z" fill="#CECECE"/>
<path d="M65.6123 49.5194H36.2939C35.6661 49.5194 35.1566 49.0099 35.1566 48.3821C35.1566 47.7544 35.6661 47.2449 36.2939 47.2449H65.6123C66.2401 47.2449 66.7496 47.7544 66.7496 48.3821C66.7496 49.0099 66.2401 49.5194 65.6123 49.5194Z" fill="#CECECE"/>
<path d="M32.4419 49.5184H32.1598C31.5321 49.5184 31.0226 49.0089 31.0226 48.3812C31.0226 47.7534 31.5321 47.2439 32.1598 47.2439H32.4419C33.0696 47.2439 33.5791 47.7534 33.5791 48.3812C33.5791 49.0089 33.0696 49.5184 32.4419 49.5184Z" fill="#CECECE"/>
<path d="M29.0099 49.622H28.7278C28.1001 49.622 27.5906 49.1126 27.5906 48.4848C27.5906 47.857 28.1001 47.3475 28.7278 47.3475H29.0099C29.6376 47.3475 30.1471 47.857 30.1471 48.4848C30.1471 49.1126 29.6376 49.622 29.0099 49.622Z" fill="#CECECE"/>
<path d="M25.3692 49.5194H19.5328C18.905 49.5194 18.3955 49.0099 18.3955 48.3821C18.3955 47.7544 18.905 47.2449 19.5328 47.2449H25.3692C25.9969 47.2449 26.5064 47.7544 26.5064 48.3821C26.5064 49.0099 25.9969 49.5194 25.3692 49.5194Z" fill="#CECECE"/>
<path d="M56.6446 63.4923C56.5286 63.4923 56.4126 63.4741 56.2966 63.4377C55.6984 63.2444 55.3708 62.6052 55.5619 62.007C57.6181 55.6157 59.6265 48.6875 59.6469 48.6193C59.8221 48.0165 60.4544 47.6685 61.0549 47.8437C61.6576 48.0188 62.0056 48.6488 61.8305 49.2516C61.81 49.3221 59.7925 56.2821 57.7272 62.703C57.5726 63.1852 57.1245 63.4923 56.6446 63.4923Z" fill="#CECECE"/>
<path d="M55.5925 66.7868C55.1467 66.7868 54.7282 66.5366 54.4803 66.1135C54.1618 65.5722 54.3438 64.8739 54.8874 64.5578C55.1035 64.4304 55.3446 64.3849 55.5743 64.4077C55.7267 64.3917 55.8836 64.4077 56.0383 64.4577C56.6365 64.6511 56.964 65.2902 56.773 65.8884C56.5819 66.4843 56.1065 66.7391 55.7267 66.7823C55.6789 66.7845 55.6357 66.7868 55.5925 66.7868Z" fill="#CECECE"/>
<path d="M50.4758 82.824C49.9822 82.824 49.5478 82.5079 49.3954 82.0393C49.3954 82.0393 47.4007 75.9118 45.0056 68.5697C44.81 67.9715 45.1375 67.3301 45.7335 67.1367C46.3294 66.9411 46.9731 67.2687 47.1664 67.8646C48.472 71.8677 49.6593 75.5092 50.469 77.9952L53.4441 68.7448C53.6374 68.1466 54.2765 67.8191 54.8747 68.0102C55.4729 68.2035 55.8004 68.8426 55.6094 69.4408L51.5585 82.037C51.4061 82.5033 50.9717 82.8218 50.4758 82.824Z" fill="#CECECE"/>
<path d="M44.725 65.3425C44.6431 65.3425 44.5612 65.3334 44.4771 65.3152L44.4339 65.3061L44.4179 65.3039C43.8607 65.1719 43.4695 64.642 43.5332 64.0711C43.5968 63.4933 44.0836 63.0566 44.6636 63.0566C44.7637 63.0566 44.8342 63.068 44.9092 63.0839L44.9593 63.0953C44.9616 63.0953 44.9661 63.0976 44.9684 63.0976C45.5825 63.234 45.9692 63.8414 45.8327 64.4532C45.7167 64.9809 45.2459 65.3425 44.725 65.3425Z" fill="#CECECE"/>
<path d="M43.818 62.2209C43.3381 62.2209 42.8945 61.9161 42.7376 61.4362C40.7952 55.4793 38.9414 50.0386 38.9232 49.984C38.7208 49.3904 39.0393 48.7444 39.6329 48.5397C40.2266 48.3373 40.8725 48.6557 41.0772 49.2494C41.0954 49.3039 42.9537 54.7582 44.9029 60.7311C45.0986 61.3293 44.771 61.9707 44.1751 62.164C44.0546 62.2027 43.9363 62.2209 43.818 62.2209Z" fill="#CECECE"/>
<path d="M75.8128 28.6175C75.5922 28.6175 75.3693 28.5539 75.1737 28.4197C74.6551 28.0671 74.5186 27.3597 74.8735 26.8389L79.0608 20.6772C79.4134 20.1587 80.1208 20.0222 80.6416 20.377C81.1602 20.7295 81.2967 21.4369 80.9441 21.9578L76.7567 28.1194C76.5338 28.4447 76.1768 28.6175 75.8128 28.6175Z" fill="#CECECE"/>
<path d="M26.3826 28.0126C26.0119 28.0126 25.6479 27.8306 25.4296 27.4963L21.456 21.4143C21.1126 20.8888 21.2604 20.1837 21.7858 19.8403C22.3112 19.4968 23.0163 19.6447 23.3598 20.1701L27.3333 26.2521C27.6768 26.7775 27.529 27.4826 27.0035 27.8261C26.8125 27.9512 26.5964 28.0126 26.3826 28.0126Z" fill="#CECECE"/>
<path d="M51.2514 26.7916C50.6236 26.7916 50.1141 26.2822 50.1141 25.6544V17.1341C50.1141 16.5063 50.6236 15.9968 51.2514 15.9968C51.8792 15.9968 52.3886 16.5063 52.3886 17.1341V25.6544C52.3886 26.2822 51.8792 26.7916 51.2514 26.7916Z" fill="#CECECE"/>
<path d="M64.3637 25.8092C64.0635 25.8092 63.77 25.6886 63.5585 25.4771C63.347 25.2656 63.2264 24.9722 63.2264 24.6719C63.2264 24.3717 63.347 24.0783 63.5585 23.869C63.77 23.6575 64.0635 23.5347 64.3637 23.5347C64.6639 23.5347 64.9551 23.6575 65.1666 23.869C65.3781 24.0805 65.501 24.374 65.501 24.6719C65.501 24.9722 65.3781 25.2656 65.1666 25.4771C64.9551 25.6886 64.6617 25.8092 64.3637 25.8092Z" fill="#CECECE"/>
<path d="M81.7967 34.1521C81.4987 34.1521 81.2053 34.0292 80.9938 33.8177C80.7823 33.6062 80.6594 33.3128 80.6594 33.0148C80.6594 32.7146 80.7823 32.4212 80.9938 32.2096C81.2053 31.9981 81.4987 31.8776 81.7967 31.8776C82.0969 31.8776 82.3903 31.9981 82.6019 32.2096C82.8134 32.4212 82.9339 32.7146 82.9339 33.0148C82.9339 33.3128 82.8134 33.6062 82.6019 33.8177C82.3903 34.0292 82.0969 34.1521 81.7967 34.1521Z" fill="#CECECE"/>
<path d="M37.2184 25.3536C36.9205 25.3536 36.6271 25.2331 36.4155 25.0215C36.204 24.81 36.0812 24.5166 36.0812 24.2164C36.0812 23.9184 36.204 23.625 36.4155 23.4134C36.6271 23.2019 36.9205 23.0791 37.2184 23.0791C37.5187 23.0791 37.8121 23.2019 38.0236 23.4112C38.2351 23.625 38.3557 23.9184 38.3557 24.2164C38.3557 24.5166 38.2351 24.81 38.0236 25.0215C37.8121 25.2331 37.5187 25.3536 37.2184 25.3536Z" fill="#CECECE"/>
<path d="M20.087 34.6043C19.7867 34.6043 19.4956 34.4815 19.2841 34.27C19.0702 34.0584 18.9497 33.7673 18.9497 33.4671C18.9497 33.1669 19.0702 32.8734 19.2841 32.6619C19.4933 32.4504 19.7867 32.3298 20.087 32.3298C20.3872 32.3298 20.6806 32.4504 20.8921 32.6619C21.1037 32.8734 21.2242 33.1669 21.2242 33.4671C21.2242 33.7651 21.1037 34.0584 20.8921 34.27C20.6783 34.4815 20.3872 34.6043 20.087 34.6043Z" fill="#CECECE"/>
<path d="M13.428 40.3322C13.2028 40.3322 12.9754 40.2662 12.7775 40.1275L5.95397 35.351C5.43993 34.9916 5.31484 34.282 5.67421 33.7679C6.03359 33.2539 6.74322 33.1288 7.25726 33.4882L14.0808 38.2647C14.5948 38.624 14.7199 39.3337 14.3606 39.8477C14.1377 40.1639 13.7851 40.3322 13.428 40.3322Z" fill="#CECECE"/>
<path d="M85.7501 41.6951C85.3248 41.6951 84.9154 41.454 84.722 41.0446C84.4537 40.476 84.6948 39.7982 85.2634 39.5298L93.9065 35.4357C94.4729 35.1673 95.153 35.4084 95.4214 35.977C95.6898 36.5456 95.4487 37.2234 94.88 37.4918L86.2369 41.586C86.0777 41.661 85.9116 41.6951 85.7501 41.6951Z" fill="#CECECE"/>
</svg>
