<svg width="101" height="100" viewBox="0 0 101 100" fill="none" xmlns="http://www.w3.org/2000/svg">
<path d="M28.5341 16.4101C27.6713 16.8216 26.8616 17.5517 26.6094 18.149L26.4502 18.5207L25.7599 18.2021C24.844 17.7773 23.5167 17.6048 22.4017 17.7641C20.6894 17.9897 18.4992 19.3569 17.6099 20.7639C16.4816 22.5293 16.3356 24.9982 17.2515 26.7769C18.0612 28.3565 32.5959 53.3907 33.0605 54.0013C33.9763 55.2092 35.3303 56.1383 37.0293 56.7357L38.0912 57.1073L42.7768 57.1471L47.4492 57.2002V60.2399V63.2796L46.9979 63.4654C46.1616 63.8105 46.1351 63.9433 45.7236 70.089C45.5112 73.1685 45.3386 75.7038 45.3254 75.7171C45.3254 75.7436 42.6043 75.7569 39.2858 75.7569H33.233L32.9144 76.0887L32.5826 76.4073V79.8452C32.5826 83.1238 32.5959 83.3096 32.8614 83.6415L33.1268 83.9866H36.0338H38.9407L39.2062 83.6415C39.3655 83.4424 39.4849 83.1105 39.4849 82.9114V82.5265H46.9713H54.4709L54.7364 82.1813C55.0815 81.7433 55.0948 81.1858 54.763 80.7876L54.5108 80.469L46.9979 80.4292L39.4849 80.4027V79.1417V77.8807H50.5021H61.5193V79.1417V80.4027H59.9928C58.0018 80.4027 57.5372 80.6151 57.5372 81.5177C57.5372 81.6902 57.6566 81.9822 57.8159 82.1813C58.0814 82.5265 58.1079 82.5265 59.7804 82.5265H61.4795L61.5591 83.0043C61.7184 83.9866 61.7449 83.9866 64.9837 83.9866H67.8774L68.1429 83.6415C68.4083 83.3096 68.4216 83.1238 68.4216 79.8452V76.4073L68.0898 76.0887L67.7712 75.7569H61.7184C58.4 75.7569 55.6789 75.7436 55.6789 75.7171C55.6789 75.7038 55.5063 73.1685 55.2939 70.089C54.8692 63.9433 54.8426 63.8105 54.0064 63.4654L53.5551 63.2796V60.2266V57.1737H57.3381C61.5193 57.1737 61.7317 57.2002 62.5546 58.0099C62.7936 58.2356 65.0899 62.085 67.7977 66.7839C73.1338 76.0489 73.3462 76.3542 74.9788 77.1506C76.8902 78.0798 78.7884 78.0665 80.7529 77.0842C81.8811 76.5135 82.8236 75.6772 83.4342 74.7215C84.5492 72.9694 84.6553 70.4872 83.6864 68.5891C82.8634 66.9564 79.3724 61.0496 79.0937 60.7974C78.6689 60.4125 78.2176 60.4125 77.7928 60.7841C77.1292 61.3815 77.169 61.5275 78.9875 64.6733C82.4519 70.6863 82.1599 70.0757 82.1599 71.3766C82.1599 72.2792 82.1068 72.6243 81.8546 73.1154C81.4431 73.9649 80.5936 74.7613 79.5848 75.2657C78.868 75.6109 78.576 75.6772 77.7928 75.6772C76.6115 75.6772 75.5496 75.2127 74.8461 74.3897C74.5806 74.0844 72.2046 70.0757 69.5499 65.4963C64.3333 56.4436 64.1475 56.1782 62.6608 55.4879L61.8511 55.1163L50.1039 55.0499C38.4629 54.9835 38.3567 54.9835 37.6664 54.6915C36.578 54.2535 35.8347 53.7756 35.1444 53.0721C34.6533 52.5677 32.7153 49.3157 26.7953 39.0285C22.5477 31.6749 19.0036 25.4097 18.9107 25.131C18.5656 24.0292 18.924 22.5028 19.7735 21.494C20.2646 20.9099 21.5256 20.1799 22.4548 19.9409C23.7689 19.6091 25.1493 20.0206 26.1449 21.0559C26.3572 21.2949 28.2952 24.5336 30.4588 28.2768L34.3878 35.073L32.8614 35.1526C31.096 35.2323 30.5517 35.4314 29.7553 36.3207C29.2775 36.8516 28.866 37.9003 28.866 38.5905C28.866 39.2144 29.2509 40.2364 29.6757 40.7541C29.9013 41.0329 30.3924 41.4178 30.7774 41.6169L31.4543 41.9753L34.9321 42.0151L38.4098 42.0682L39.1398 43.2894C39.9761 44.6964 40.7725 45.5061 41.8477 45.9972L42.6043 46.3556L47.781 46.3954L52.9577 46.4353L55.5461 48.9971C58.3734 51.8111 58.5592 51.9173 59.9928 51.9173C61.3467 51.904 62.5015 51.1209 63.0458 49.8333C63.3245 49.1431 63.298 47.8157 62.9794 47.0989C62.8334 46.7804 62.7139 46.5016 62.7139 46.4751C62.7139 46.3556 65.4085 46.4353 66.0589 46.568C67.1606 46.7937 68.3685 47.4573 69.2048 48.2803C69.8021 48.8776 70.4392 49.8731 72.5365 53.5234C73.9567 56.0056 75.2576 58.1825 75.4301 58.355C76.0274 58.9524 77.1823 58.448 77.1823 57.5852C77.1823 57.1604 72.1515 48.413 71.2887 47.3246C70.1737 45.9309 68.103 44.7362 66.2978 44.4442C65.82 44.3646 64.3333 44.2982 62.9927 44.2982H60.537L56.6877 40.4621C52.9976 36.8118 52.7719 36.6127 51.6967 36.0818C51.0729 35.7765 50.157 35.4446 49.6393 35.3384C48.4181 35.0862 44.7015 35.073 44.3697 35.3252C44.0113 35.5906 43.852 36.1481 44.0113 36.5596C44.2502 37.1968 44.4493 37.2499 46.52 37.2631C48.6703 37.2631 49.7455 37.4622 50.8207 38.0197C51.2985 38.2719 52.8781 39.7453 56.316 43.1699C61.068 47.8954 61.1211 47.9485 61.1211 48.4927C61.1211 49.3024 60.3114 50.0059 59.6079 49.7935C59.4619 49.7537 57.2452 47.6432 54.6833 45.1079C51.7498 42.1877 49.8384 40.3957 49.5066 40.2364C49.0022 39.9975 48.4978 39.9842 40.4805 39.9179C33.9233 39.8648 31.9189 39.8117 31.6933 39.6789C31.2552 39.44 30.9499 38.7763 31.0561 38.325C31.1092 38.1126 31.3216 37.7808 31.5473 37.595L31.9455 37.2631H36.286C40.4937 37.2631 40.653 37.2499 40.9981 36.9844C41.4893 36.5994 41.4893 35.803 40.9981 35.4181C40.6796 35.1659 40.4672 35.1393 38.7682 35.1393L36.8966 35.1261L36.3258 34.1305C36.0072 33.573 35.7683 33.1085 35.7948 33.0819C35.8214 33.0686 36.1665 32.9492 36.578 32.843C38.8743 32.1793 40.0026 29.5113 38.9142 27.3609C38.1177 25.8079 33.1932 17.3791 32.8746 17.0473C31.8526 15.9721 30.0075 15.6934 28.5341 16.4101ZM31.1756 18.441C31.3482 18.6136 32.7817 20.9497 34.3347 23.6576C36.9231 28.1574 37.162 28.6219 37.162 29.1927C37.162 29.7369 37.0957 29.8829 36.6842 30.3077C36.3125 30.6794 36.0603 30.7988 35.6223 30.8519C34.5471 30.9714 34.4277 30.8254 31.2818 25.3832C28.189 20.0471 28.0563 19.7286 28.6138 19.0251C29.3173 18.1357 30.5252 17.857 31.1756 18.441ZM48.8562 42.4266C49.1349 42.639 49.7057 43.1434 50.1039 43.5549L50.8207 44.2982H47.197C44.821 44.2982 43.3874 44.2451 43.0556 44.1389C42.3919 43.9531 41.622 43.2894 41.2371 42.5859L40.9318 42.0417H44.6351H48.3385L48.8562 42.4266ZM51.4313 60.2266V63.2796H50.5021H49.573V60.2266V57.1737H50.5021H51.4313V60.2266ZM52.9047 66.0273C52.9047 66.3856 53.0374 68.5891 53.1967 70.9385L53.502 75.2259H50.5419H47.5819V74.8543C47.5819 74.6552 47.7014 72.4517 47.8739 69.943L48.1659 65.4034H50.5287H52.8914L52.9047 66.0273ZM37.3611 79.9381V81.9955H36.0338H34.7064V79.9381V77.8807H36.0338H37.3611V79.9381ZM66.2978 79.9381V81.9955H64.9705H63.6431V79.9381V77.8807H64.9705H66.2978V79.9381Z" fill="#CECECE"/>
</svg>
