<svg width="101" height="100" viewBox="0 0 101 100" fill="none" xmlns="http://www.w3.org/2000/svg">
<path d="M26.8054 40.6445H24.6666V32.6637H12.5526V40.6445H10.4138V30.5084H26.8054V40.6445Z" fill="#C6C6C6"/>
<path d="M25.1708 81.9964H12.0858C8.17822 81.9964 5 78.7938 5 74.8561V47.767C5 43.8294 8.17822 40.6267 12.0858 40.6267H25.1686C29.0762 40.6267 32.2544 43.8294 32.2544 47.767V74.854C32.2565 78.7938 29.0783 81.9964 25.1708 81.9964ZM12.0858 42.7819C9.35668 42.7819 7.13877 45.0191 7.13877 47.767V74.854C7.13877 77.6019 9.35882 79.839 12.0858 79.839H25.1686C27.8977 79.839 30.1156 77.6019 30.1156 74.854V47.767C30.1156 45.0191 27.8956 42.7819 25.1686 42.7819H12.0858Z" fill="#C6C6C6"/>
<path d="M14.9017 39.8419C14.3114 39.8419 13.8323 39.3591 13.8323 38.7642V34.8633C13.8323 34.2684 14.3114 33.7856 14.9017 33.7856C15.492 33.7856 15.971 34.2684 15.971 34.8633V38.7642C15.971 39.3612 15.492 39.8419 14.9017 39.8419Z" fill="#C6C6C6"/>
<path d="M18.4363 39.8419C17.846 39.8419 17.3669 39.3591 17.3669 38.7642V34.8633C17.3669 34.2684 17.846 33.7856 18.4363 33.7856C19.0266 33.7856 19.5057 34.2684 19.5057 34.8633V38.7642C19.5057 39.3612 19.0266 39.8419 18.4363 39.8419Z" fill="#C6C6C6"/>
<path d="M22.1089 39.8428C21.5186 39.8428 21.0396 39.3601 21.0396 38.7652V34.8642C21.0396 34.2694 21.5186 33.7866 22.1089 33.7866C22.6992 33.7866 23.1783 34.2694 23.1783 34.8642V38.7652C23.1783 39.3622 22.6992 39.8428 22.1089 39.8428Z" fill="#C6C6C6"/>
<path d="M24.7874 77.659H20.7173C20.127 77.659 19.6479 77.1762 19.6479 76.5814C19.6479 75.9865 20.127 75.5037 20.7173 75.5037H24.7853C25.5788 75.5037 26.2225 74.8529 26.2225 74.0554V72.1222C26.2225 71.5273 26.7016 71.0446 27.2919 71.0446C27.8822 71.0446 28.3613 71.5273 28.3613 72.1222V74.0554C28.3635 76.0404 26.7594 77.659 24.7874 77.659Z" fill="#C6C6C6"/>
<path d="M29.936 52.6305H27.7715C27.1812 52.6305 26.7021 52.1477 26.7021 51.5528C26.7021 50.958 27.1812 50.4752 27.7715 50.4752H29.9338C30.5241 50.4752 31.0032 50.958 31.0032 51.5528C31.0054 52.1477 30.5263 52.6305 29.936 52.6305Z" fill="#C6C6C6"/>
<path d="M24.9314 52.627H24.7967C24.2064 52.627 23.7273 52.1443 23.7273 51.5494C23.7273 50.9546 24.2064 50.4718 24.7967 50.4718H24.9314C25.5217 50.4718 26.0008 50.9546 26.0008 51.5494C26.0008 52.1443 25.5217 52.627 24.9314 52.627Z" fill="#C6C6C6"/>
<path d="M21.8558 52.6305H7.10039C6.51009 52.6305 6.03101 52.1477 6.03101 51.5528C6.03101 50.958 6.51009 50.4752 7.10039 50.4752H21.8558C22.4461 50.4752 22.9252 50.958 22.9252 51.5528C22.9252 52.1477 22.4461 52.6305 21.8558 52.6305Z" fill="#C6C6C6"/>
<path d="M30.2697 69.2255H7.10039C6.51009 69.2255 6.03101 68.7428 6.03101 68.1479C6.03101 67.5531 6.51009 67.0703 7.10039 67.0703H30.2719C30.8622 67.0703 31.3413 67.5531 31.3413 68.1479C31.3391 68.7428 30.86 69.2255 30.2697 69.2255Z" fill="#C6C6C6"/>
<path d="M22.8637 32.098C22.3654 32.098 21.9205 31.7446 21.8179 31.2338L20.4469 24.4318H16.7896L15.4229 31.0592C15.3031 31.6411 14.7364 32.0161 14.1589 31.8954C13.5814 31.7747 13.2093 31.2036 13.3291 30.6217L14.8733 23.1344C14.9759 22.6344 15.4144 22.2766 15.9213 22.2766H21.3238C21.8328 22.2766 22.2713 22.6365 22.3718 23.1409L23.916 30.8049C24.0336 31.3889 23.6593 31.9579 23.0797 32.0743C23.007 32.0915 22.9343 32.098 22.8637 32.098Z" fill="#C6C6C6"/>
<path d="M20.058 23.5447C19.5639 23.5447 19.119 23.1956 19.0121 22.6891L18.6335 20.8809L18.2721 22.5231C18.1438 23.1051 17.5727 23.4715 16.9952 23.3421C16.4178 23.2128 16.0542 22.6374 16.1825 22.0555L16.8904 18.8463C16.9995 18.3528 17.4337 18.0015 17.9342 18.0015H19.35C19.8548 18.0015 20.2932 18.3592 20.3959 18.8571L21.1038 22.243C21.2257 22.8249 20.8557 23.396 20.2783 23.5189C20.2055 23.5361 20.1307 23.5447 20.058 23.5447Z" fill="#C6C6C6"/>
<path d="M58.7318 40.6444H56.5931V32.6635H44.4769V40.6444H42.3381V30.5083H58.7318V40.6444Z" fill="#C6C6C6"/>
<path d="M57.0841 82H43.9991C40.0915 82 36.9133 78.7973 36.9133 74.8597V47.7705C36.9133 43.8329 40.0915 40.6302 43.9991 40.6302H57.0841C60.9917 40.6302 64.1699 43.8329 64.1699 47.7705V74.8575C64.1699 78.7973 60.9917 82 57.0841 82ZM43.9991 42.7855C41.2722 42.7855 39.0521 45.0226 39.0521 47.7705V74.8575C39.0521 77.6055 41.2722 79.8426 43.9991 79.8426H57.0841C59.8132 79.8426 62.0311 77.6055 62.0311 74.8575V47.7705C62.0311 45.0226 59.811 42.7855 57.0841 42.7855H43.9991Z" fill="#C6C6C6"/>
<path d="M46.7747 39.8417C46.1844 39.8417 45.7053 39.359 45.7053 38.7641V34.8631C45.7053 34.2683 46.1844 33.7855 46.7747 33.7855C47.365 33.7855 47.8441 34.2683 47.8441 34.8631V38.7641C47.8441 39.3611 47.365 39.8417 46.7747 39.8417Z" fill="#C6C6C6"/>
<path d="M50.3497 39.842C49.7594 39.842 49.2803 39.3592 49.2803 38.7644V34.8634C49.2803 34.2685 49.7594 33.7858 50.3497 33.7858C50.94 33.7858 51.419 34.2685 51.419 34.8634V38.7644C51.419 39.3614 50.94 39.842 50.3497 39.842Z" fill="#C6C6C6"/>
<path d="M53.9847 39.8427C53.3944 39.8427 52.9153 39.3599 52.9153 38.7651V34.8641C52.9153 34.2693 53.3944 33.7865 53.9847 33.7865C54.575 33.7865 55.0541 34.2693 55.0541 34.8641V38.7651C55.0541 39.3621 54.5771 39.8427 53.9847 39.8427Z" fill="#C6C6C6"/>
<path d="M56.661 77.6623H52.5931C52.0028 77.6623 51.5237 77.1795 51.5237 76.5846C51.5237 75.9898 52.0028 75.507 52.5931 75.507H56.661C57.4545 75.507 58.0983 74.8562 58.0983 74.0587V72.1255C58.0983 71.5306 58.5774 71.0479 59.1677 71.0479C59.758 71.0479 60.237 71.5306 60.237 72.1255V74.0587C60.237 76.0437 58.633 77.6623 56.661 77.6623Z" fill="#C6C6C6"/>
<path d="M61.8335 52.6303H59.6712C59.0809 52.6303 58.6018 52.1476 58.6018 51.5527C58.6018 50.9579 59.0809 50.4751 59.6712 50.4751H61.8335C62.4238 50.4751 62.9029 50.9579 62.9029 51.5527C62.9029 52.1476 62.4238 52.6303 61.8335 52.6303Z" fill="#C6C6C6"/>
<path d="M56.8321 52.6303H56.6973C56.107 52.6303 55.6279 52.1476 55.6279 51.5527C55.6279 50.9579 56.107 50.4751 56.6973 50.4751H56.8321C57.4224 50.4751 57.9014 50.9579 57.9014 51.5527C57.9014 52.1476 57.4224 52.6303 56.8321 52.6303Z" fill="#C6C6C6"/>
<path d="M53.7288 52.6303H38.9734C38.3831 52.6303 37.9041 52.1476 37.9041 51.5527C37.9041 50.9579 38.3831 50.4751 38.9734 50.4751H53.7288C54.3191 50.4751 54.7982 50.9579 54.7982 51.5527C54.7982 52.1476 54.3191 52.6303 53.7288 52.6303Z" fill="#C6C6C6"/>
<path d="M62.1428 69.2253H38.9734C38.3831 69.2253 37.9041 68.7425 37.9041 68.1477C37.9041 67.5528 38.3831 67.0701 38.9734 67.0701H62.1449C62.7352 67.0701 63.2143 67.5528 63.2143 68.1477C63.2122 68.7425 62.7352 69.2253 62.1428 69.2253Z" fill="#C6C6C6"/>
<path d="M54.7782 32.1001C54.2799 32.1001 53.835 31.7466 53.7323 31.2358L52.3614 24.4339H48.702L47.3353 31.0613C47.2155 31.6432 46.6487 32.0182 46.0713 31.8975C45.4938 31.7768 45.1216 31.2057 45.2414 30.6238L46.7856 23.1365C46.8883 22.6365 47.3267 22.2787 47.8336 22.2787H53.2362C53.7452 22.2787 54.1836 22.6386 54.2842 23.1429L55.8283 30.8069C55.946 31.391 55.5717 31.96 54.9921 32.0764C54.9194 32.0936 54.8488 32.1001 54.7782 32.1001Z" fill="#C6C6C6"/>
<path d="M51.9442 23.5433C51.4501 23.5433 51.0053 23.1941 50.8983 22.6876L50.5198 20.8794L50.1583 22.5217C50.03 23.1036 49.4589 23.47 48.8815 23.3407C48.304 23.2114 47.9404 22.6359 48.0687 22.054L48.7767 18.8449C48.8857 18.3513 49.3199 18 49.8204 18H51.2363C51.741 18 52.1795 18.3578 52.2821 18.8556L52.99 22.2415C53.112 22.8234 52.742 23.3946 52.1645 23.5174C52.0918 23.5346 52.0169 23.5433 51.9442 23.5433Z" fill="#C6C6C6"/>
<path d="M90.5517 40.6442H88.4129V32.6634H76.2967V40.6442H74.158V30.5082H90.5517V40.6442Z" fill="#C6C6C6"/>
<path d="M88.9142 82H75.8314C71.9238 82 68.7456 78.7973 68.7456 74.8597V47.7705C68.7456 43.8329 71.9238 40.6302 75.8314 40.6302H88.9142C92.8218 40.6302 96 43.8329 96 47.7705V74.8575C96 78.7973 92.8218 82 88.9142 82ZM75.8314 42.7855C73.1044 42.7855 70.8844 45.0226 70.8844 47.7705V74.8575C70.8844 77.6055 73.1044 79.8426 75.8314 79.8426H88.9142C91.6433 79.8426 93.8612 77.6055 93.8612 74.8575V47.7705C93.8612 45.0226 91.6412 42.7855 88.9142 42.7855H75.8314Z" fill="#C6C6C6"/>
<path d="M78.6209 39.8417C78.0306 39.8417 77.5515 39.359 77.5515 38.7641V34.8631C77.5515 34.2683 78.0306 33.7855 78.6209 33.7855C79.2112 33.7855 79.6903 34.2683 79.6903 34.8631V38.7641C79.6903 39.3611 79.2133 39.8417 78.6209 39.8417Z" fill="#C6C6C6"/>
<path d="M82.1834 39.845C81.5931 39.845 81.114 39.3623 81.114 38.7674V34.8664C81.114 34.2716 81.5931 33.7888 82.1834 33.7888C82.7737 33.7888 83.2528 34.2716 83.2528 34.8664V38.7674C83.2528 39.3644 82.7737 39.845 82.1834 39.845Z" fill="#C6C6C6"/>
<path d="M85.8389 39.8417C85.2486 39.8417 84.7695 39.359 84.7695 38.7641V34.8631C84.7695 34.2683 85.2486 33.7855 85.8389 33.7855C86.4292 33.7855 86.9083 34.2683 86.9083 34.8631V38.7641C86.9083 39.3611 86.4292 39.8417 85.8389 39.8417Z" fill="#C6C6C6"/>
<path d="M88.4906 77.6588H84.4227C83.8324 77.6588 83.3533 77.1761 83.3533 76.5812C83.3533 75.9864 83.8324 75.5036 84.4227 75.5036H88.4906C89.2841 75.5036 89.9279 74.8527 89.9279 74.0553V72.1221C89.9279 71.5272 90.407 71.0444 90.9973 71.0444C91.5876 71.0444 92.0666 71.5272 92.0666 72.1221V74.0553C92.0666 76.0403 90.4626 77.6588 88.4906 77.6588Z" fill="#C6C6C6"/>
<path d="M93.6394 52.6303H91.4771C90.8868 52.6303 90.4077 52.1476 90.4077 51.5527C90.4077 50.9579 90.8868 50.4751 91.4771 50.4751H93.6394C94.2297 50.4751 94.7088 50.9579 94.7088 51.5527C94.7088 52.1476 94.2297 52.6303 93.6394 52.6303Z" fill="#C6C6C6"/>
<path d="M88.6889 52.6305H88.5521C87.9618 52.6305 87.4827 52.1477 87.4827 51.5528C87.4827 50.958 87.9618 50.4752 88.5521 50.4752H88.6889C89.2792 50.4752 89.7583 50.958 89.7583 51.5528C89.7583 52.1477 89.2792 52.6305 88.6889 52.6305Z" fill="#C6C6C6"/>
<path d="M85.6112 52.6303H70.8558C70.2655 52.6303 69.7864 52.1476 69.7864 51.5527C69.7864 50.9579 70.2655 50.4751 70.8558 50.4751H85.6112C86.2015 50.4751 86.6806 50.9579 86.6806 51.5527C86.6806 52.1476 86.2015 52.6303 85.6112 52.6303Z" fill="#C6C6C6"/>
<path d="M94.0273 69.2253H70.8558C70.2655 69.2253 69.7864 68.7425 69.7864 68.1477C69.7864 67.5528 70.2655 67.0701 70.8558 67.0701H94.0273C94.6176 67.0701 95.0966 67.5528 95.0966 68.1477C95.0966 68.7425 94.6176 69.2253 94.0273 69.2253Z" fill="#C6C6C6"/>
<path d="M86.6078 32.1001C86.1095 32.1001 85.6646 31.7466 85.5619 31.2358L84.191 24.4339H80.5315L79.1649 31.0613C79.0451 31.6432 78.4783 32.0182 77.9008 31.8975C77.3234 31.7768 76.9512 31.2057 77.071 30.6238L78.6152 23.1365C78.7179 22.6365 79.1563 22.2787 79.6632 22.2787H85.0657C85.5748 22.2787 86.0132 22.6386 86.1137 23.1429L87.6579 30.8069C87.7756 31.391 87.4013 31.96 86.8217 32.0764C86.749 32.0936 86.6784 32.1001 86.6078 32.1001Z" fill="#C6C6C6"/>
<path d="M83.787 23.5433C83.293 23.5433 82.8481 23.1941 82.7412 22.6876L82.3626 20.8794L82.0012 22.5217C81.8728 23.1036 81.3018 23.47 80.7243 23.3407C80.1469 23.2114 79.7854 22.6359 79.9116 22.054L80.6195 18.8449C80.7286 18.3513 81.1628 18 81.6632 18H83.0791C83.5839 18 84.0223 18.3578 84.125 18.8556L84.8329 22.2415C84.9548 22.8234 84.5848 23.3946 84.0073 23.5174C83.9325 23.5346 83.8598 23.5433 83.787 23.5433Z" fill="#C6C6C6"/>
</svg>
