<svg width="101" height="100" viewBox="0 0 101 100" fill="none" xmlns="http://www.w3.org/2000/svg">
<path d="M11.1647 16.368L10.8237 16.6935V29.9293V43.1651L11.2267 43.4751C11.5212 43.7076 11.8621 43.8005 12.3891 43.8005H13.1485V59.9191V76.0376H12.2961C11.6452 76.0376 11.3662 76.1151 11.1337 76.3476C10.8392 76.6421 10.8237 76.859 10.8237 79.9743V83.3065L11.2267 83.6164L11.6452 83.9419H50.5001H89.3551L89.7735 83.6164L90.1765 83.3065V79.9743C90.1765 76.859 90.161 76.6421 89.8665 76.3476C89.6341 76.1151 89.3551 76.0376 88.7041 76.0376H87.8517V59.9191V43.8005H88.6111C89.1381 43.8005 89.4791 43.7076 89.7735 43.4751L90.1765 43.1651V29.9448V16.7245L89.82 16.399L89.4636 16.0581H50.4846H11.5057L11.1647 16.368ZM87.8517 29.9293V41.3208H50.5001H13.1485V29.9293V18.5378H50.5001H87.8517V29.9293ZM85.3719 59.9191V76.0376H83.5121H81.6523V62.2439C81.6523 48.6516 81.6523 48.4501 81.3423 48.1402C81.0323 47.8302 80.8309 47.8302 63.1005 47.8302H45.1686L44.8121 48.1712L44.4557 48.4966V62.2749V76.0376H42.5958H40.736V62.3214V48.5896L40.3485 48.2176L39.9766 47.8302H30.042C23.6411 47.8302 19.9989 47.8922 19.8129 47.9852C19.6424 48.0782 19.4409 48.4036 19.348 48.7291C19.255 49.1011 19.193 53.9056 19.193 62.6623V76.0376H17.4106H15.6283V59.9191V43.8005H50.5001H85.3719V59.9191ZM38.2562 55.037V59.7641H37.5588H36.8614V56.1219V52.4643L36.4739 52.0923L36.1019 51.7048H29.9645C23.0211 51.7048 23.3466 51.6428 23.1451 52.9757C23.0986 53.3477 23.0676 57.3928 23.0986 61.9804L23.1451 70.3341L23.5791 70.7061C24.106 71.1556 24.602 71.1866 25.1444 70.7526L25.5474 70.4426V62.3059V54.1846H29.9645H34.3816V65.886V77.5875H29.9645H25.5474V76.1151C25.5474 74.4413 25.3304 74.0228 24.447 74.0228C23.3466 74.0228 23.0676 74.6117 23.0676 77.045C23.0676 78.9513 23.2381 79.6488 23.7806 79.8813C24.044 80.0208 25.9349 80.0672 30.104 80.0672C35.73 80.0672 36.0709 80.0517 36.4119 79.7728C36.7839 79.4783 36.7839 79.4473 36.8304 75.7431L36.8769 72.008H37.5743H38.2562V76.7351V81.4621H29.9645H21.6727V65.886V50.31H29.9645H38.2562V55.037ZM56.0796 52.2318C56.0796 53.8746 56.1261 54.2001 56.3741 54.5101C56.7925 55.037 57.707 55.006 58.1874 54.4326C58.5284 54.0451 58.5594 53.8901 58.5594 52.1543V50.31H63.1315H67.7036V63.1738V76.0376H63.1315H58.5594L58.5284 67.2964C58.4819 58.9582 58.4664 58.5397 58.1874 58.2297C57.7845 57.7958 56.8235 57.7803 56.3896 58.2142C56.0796 58.5242 56.0796 58.7257 56.0796 67.2809V76.0376H51.5075H46.9354V63.1738V50.31H51.5075H56.0796V52.2318ZM79.1725 63.1738V76.0376H74.6779H70.1833V63.1738V50.31H74.6779H79.1725V63.1738ZM38.1012 65.886V69.5282H37.4813H36.8614V65.886V62.2439H37.4813H38.1012V65.886ZM19.193 79.9898V81.4621H16.1707H13.1485V79.9898V78.5174H16.1707H19.193V79.9898ZM87.8517 79.9898V81.4621H64.2939H40.736V79.9898V78.5174H64.2939H87.8517V79.9898Z" fill="#CECECE" stroke="#313234"/>
<path d="M19.24 20.9405C19.0385 21.08 18.8525 21.421 18.806 21.762C18.558 23.1723 17.9536 23.8698 16.7757 24.0557C15.4273 24.2572 15.4738 24.0247 15.4738 29.8987C15.4738 33.8973 15.5203 35.1217 15.6753 35.3387C15.7838 35.4937 16.2178 35.6797 16.6362 35.7572C17.9381 36.0052 18.5115 36.5786 18.744 37.8805C18.8215 38.3144 19.023 38.7174 19.209 38.8724C19.519 39.1359 21.2393 39.1514 50.5006 39.1514C79.762 39.1514 81.4823 39.1359 81.7923 38.8724C81.9783 38.7174 82.1797 38.3144 82.2572 37.8805C82.4897 36.5786 83.0632 36.0052 84.3651 35.7572C84.7835 35.6797 85.2175 35.4937 85.326 35.3387C85.4809 35.1217 85.5274 33.8973 85.5274 29.8987C85.5274 24.0247 85.5739 24.2572 84.2256 24.0557C83.0477 23.8698 82.4432 23.1723 82.1952 21.762C82.0093 20.6151 84.2256 20.708 56.3436 20.708C40.5815 20.708 31.1584 20.77 30.9879 20.863C30.5075 21.111 30.275 21.8704 30.5075 22.4129C30.6159 22.6764 30.8329 22.9553 30.9879 23.0328C31.1584 23.1258 40.3181 23.1878 55.5997 23.1878H79.917L80.1029 23.7148C80.3664 24.5207 81.4048 25.6056 82.3502 26.0706L83.2027 26.4735V29.9452V33.4014L82.4277 33.7424C81.5288 34.1298 80.3664 35.3232 80.1029 36.1291L79.917 36.6716H50.5006H21.0843L20.8983 36.1291C20.6349 35.3232 19.4725 34.1298 18.5735 33.7424L17.7986 33.4014V29.9452V26.4735L18.651 26.0706C19.5965 25.6056 20.6349 24.5207 20.8983 23.7148L21.0843 23.1878H23.8276C26.3848 23.1878 26.6173 23.1568 27.0048 22.8624C27.3147 22.6144 27.4077 22.4129 27.4077 21.9479C27.4077 21.483 27.3147 21.2815 27.0048 21.0335C26.6173 20.7235 26.4003 20.708 23.0836 20.708C20.1854 20.708 19.519 20.7545 19.24 20.9405Z" fill="#CECECE" stroke="#313234"/>
<path d="M26.3232 25.5126C25.9203 25.9155 25.9203 26.7525 26.3077 27.2329C26.5557 27.5274 26.7727 27.6049 27.7026 27.6514L28.803 27.7134V30.9681C28.803 34.1918 28.803 34.2073 29.1905 34.5793C29.6399 35.0442 30.3374 35.0752 30.8333 34.6722C31.2053 34.3778 31.2053 34.3313 31.2518 31.0301L31.2983 27.6824H32.1352C33.1426 27.6824 33.6696 27.4654 33.902 26.9539C34.15 26.4115 34.119 26.0705 33.7471 25.6056L33.4371 25.2026H30.0274C26.8347 25.2026 26.6177 25.2181 26.3232 25.5126Z" fill="#CECECE" stroke="#313234"/>
<path d="M36.1161 25.5284C34.9847 26.1019 34.7522 26.6288 34.1477 30.023C33.4813 33.7582 33.4658 34.2231 34.0083 34.6416C34.5352 35.06 35.0467 35.06 35.5426 34.6106C35.8681 34.3316 35.9921 34.0061 36.1936 32.7508L36.457 31.2474H37.5574H38.6733L38.9368 32.7973C39.1693 34.0991 39.2778 34.3936 39.6032 34.6571C40.0837 35.029 40.5487 35.0445 41.0136 34.7191C41.6646 34.2696 41.6646 33.9596 41.0446 30.4105C40.5642 27.6982 40.3782 26.9233 40.0682 26.4583C39.2778 25.2804 37.4799 24.862 36.1161 25.5284ZM38.0844 28.1632C38.1774 28.4421 38.2549 28.6901 38.2549 28.7056C38.2549 28.7366 37.9449 28.7676 37.5729 28.7676C36.9375 28.7676 36.891 28.7366 36.9685 28.4112C37.1855 27.5587 37.8209 27.4037 38.0844 28.1632Z" fill="#CECECE" stroke="#313234"/>
<path d="M41.5289 25.4659C41.3584 25.6209 41.1569 25.9619 41.1104 26.2408C41.0329 26.6593 41.0949 26.8143 41.4824 27.2172C41.9008 27.6357 42.0558 27.6822 42.8928 27.6822H43.8382V30.7819C43.8382 34.0676 43.9157 34.5016 44.5666 34.7961C45.1091 35.044 45.45 35.013 45.915 34.6411L46.3179 34.3311V31.0144V27.7132L47.4183 27.6512C48.3483 27.6047 48.5652 27.5272 48.8132 27.2327C49.2007 26.7523 49.2007 25.9154 48.7977 25.5124C48.5032 25.2179 48.2863 25.2024 45.171 25.2024C42.2418 25.2024 41.8234 25.2334 41.5289 25.4659Z" fill="#CECECE" stroke="#313234"/>
<path d="M50.1921 25.5129C49.7892 25.9159 49.7892 26.7528 50.1766 27.2333C50.4246 27.5277 50.6416 27.6052 51.5715 27.6517L52.6719 27.7137L52.7029 31.0614L52.7494 34.3936L53.1679 34.7036C53.4778 34.9361 53.7103 34.9826 54.1288 34.9051C55.0587 34.7346 55.1517 34.3781 55.1517 30.7824V27.6827H56.0971C56.934 27.6827 57.089 27.6362 57.492 27.2333C58.0499 26.6753 58.0654 26.1019 57.554 25.5904C57.182 25.203 57.182 25.203 53.8343 25.203C50.7036 25.203 50.4866 25.2185 50.1921 25.5129Z" fill="#CECECE" stroke="#313234"/>
<path d="M60.6053 25.4038C59.7994 25.6518 58.6215 26.7987 58.296 27.6511C58.079 28.2091 58.017 28.798 58.0325 30.1619C58.0325 31.6963 58.079 32.0527 58.389 32.6882C58.854 33.6336 59.7994 34.4395 60.7913 34.734C61.7677 35.0285 62.3256 35.0285 63.302 34.734C64.3095 34.4395 65.0999 33.7576 65.5958 32.7657C65.9678 32.0372 65.9988 31.7892 65.9988 30.0689C65.9988 27.9611 65.8593 27.4341 65.0379 26.5042C64.046 25.3728 62.1552 24.9079 60.6053 25.4038ZM63.0696 28.1316C63.5035 28.5655 63.519 28.643 63.519 30.0844C63.519 31.4483 63.488 31.6033 63.1471 31.9442C62.3411 32.7502 61.0702 32.5177 60.6363 31.4793C60.3573 30.7973 60.3573 29.3715 60.6363 28.705C61.0857 27.6201 62.2636 27.3412 63.0696 28.1316Z" fill="#CECECE" stroke="#313234"/>
<path d="M69.5501 25.4193C68.4497 25.8067 67.4113 26.9381 67.0859 28.1315C66.8534 28.984 66.8999 31.2312 67.1789 32.1612C67.4578 33.1066 68.2483 34.0675 69.1627 34.5479C69.6431 34.7959 70.0771 34.8889 70.9605 34.8889C71.9524 34.8889 72.2314 34.8269 72.9443 34.4395C74.5097 33.5715 74.9901 32.5176 74.9901 29.9449C74.9901 28.395 74.9436 28.1315 74.5872 27.4031C73.8897 25.9927 72.6189 25.2023 71.038 25.2178C70.5265 25.2178 69.8601 25.3108 69.5501 25.4193ZM72.0609 28.1315C72.4949 28.5655 72.5104 28.643 72.5104 30.0069C72.5104 31.4172 72.5104 31.4327 71.9834 31.9597C71.2085 32.7346 70.2941 32.6106 69.7206 31.6807C69.4416 31.2467 69.3952 30.9678 69.4416 29.8829C69.4881 28.643 69.5036 28.5655 69.9996 28.1315C70.6815 27.5116 71.441 27.5116 72.0609 28.1315Z" fill="#CECECE" stroke="#313234"/>
</svg>
