<svg width="145" height="48" viewBox="0 0 145 48" fill="none" xmlns="http://www.w3.org/2000/svg">
<path d="M13.6983 6.15393L24 0.287693L34.3017 6.15393L34.3043 6.15542L44.5355 12.1438L44.606 23.9985V24.0015L44.5355 35.8562L34.3043 41.8446L34.3017 41.8461L24 47.7123L13.6983 41.8461L13.6957 41.8446L3.46454 35.8562L3.39399 24.0015V23.9985L3.46454 12.1438L13.697 6.15469L13.6983 6.15393Z" fill="white" stroke="black" stroke-width="0.5"/>
<path d="M23.9644 10.8558C23.5002 10.8558 22.7656 10.0094 22.8816 9.31688C22.9976 8.62432 23.5003 8.47052 23.9644 8.4705C24.4285 8.47049 24.9699 8.58585 25.086 9.31688C25.202 10.0479 24.4286 10.8558 23.9644 10.8558ZM23.9644 10.8558V13.0873M23.9644 13.0873H22.5333C22.3529 13.0873 21.9919 13.2104 21.9919 13.7029C21.9919 14.1953 21.9919 14.6006 21.9919 14.7417M23.9644 13.0873C24.3124 13.0873 25.109 13.0873 25.5112 13.0873C25.9134 13.0873 25.9882 13.4977 25.9753 13.7029V14.7417M21.9919 14.7417C21.9919 14.7417 20.9852 14.7417 20.4825 14.7417C19.9798 14.7417 19.2439 16.0113 20.4825 16.5499M21.9919 14.7417H25.9753M20.4825 16.5499C22.0294 16.5499 25.5628 16.5499 27.4449 16.5499M20.4825 16.5499C19.7864 16.7423 19.3223 17.935 20.4825 18.3966M27.4449 16.5499C28.2558 16.5499 28.7199 15.0495 27.4449 14.7417C26.5543 14.7417 25.8969 14.7417 25.9753 14.7417M27.4449 16.5499C28.7586 17.0501 28.1398 18.3582 27.4449 18.3966M20.4825 18.3966C21.0394 18.3966 25.3561 18.3966 27.4449 18.3966M20.4825 18.3966C19.709 18.5505 19.361 19.6278 20.4825 20.051M27.4449 18.3966C28.6813 18.7814 28.2945 20.051 27.4449 20.051M20.4825 20.051C21.7819 20.051 25.6655 20.051 27.4449 20.051M20.4825 20.051C19.8637 20.3203 19.361 21.3206 20.4825 21.8208M27.4449 20.051C28.7586 20.5896 28.1012 21.8208 27.4449 21.8208M20.4825 21.8208C21.69 21.79 25.6272 21.8079 27.4449 21.8208M20.4825 21.8208C19.9411 22.1286 19.3687 22.9827 20.4825 23.629M27.4449 21.8208C28.7199 22.3594 28.1012 23.5905 27.4449 23.629M20.4825 23.629C21.5653 23.629 25.5753 23.629 27.4449 23.629M20.4825 23.629C19.9024 23.8599 19.361 24.8602 20.4825 25.3988M27.4449 23.629C28.7199 24.0907 28.1785 25.3603 27.4449 25.3988M20.4825 25.3988C21.4107 25.4296 25.5108 25.4116 27.4449 25.3988M20.4825 25.3988C19.8637 25.5142 19.3223 26.6299 20.4825 27.0916M27.4449 25.3988C28.5652 25.6681 28.2945 27.0147 27.4449 27.0916M20.4825 27.0916C21.0394 27.0916 25.3561 27.0916 27.4449 27.0916M20.4825 27.0916C19.9024 27.3609 19.361 28.4767 20.4825 28.9383C20.8725 28.9383 21.5114 28.9383 22.2615 28.9383M27.4449 27.0916C28.5652 27.5533 28.2945 28.7075 27.4449 28.9383C26.9791 28.9383 26.3709 28.9383 25.7034 28.9383M22.2615 28.9383V34.3631L23.3056 35.8251V38.0181C23.3959 38.2651 23.697 38.4735 24.0013 38.4583M22.2615 28.9383C23.3169 28.9383 24.5922 28.9383 25.7034 28.9383M25.7034 28.9383L25.162 30.208V33.0935L25.8581 34.1323L25.7034 34.3631L24.5819 35.8251C24.569 36.0431 24.5509 36.7869 24.5819 38.0181C24.437 38.3224 24.2183 38.4475 24.0013 38.4583M23.4217 30.0926V31.2468M22.8029 30.0926V33.2858M24.0013 38.4583V39.5293" stroke="black" stroke-width="0.5" stroke-linecap="round"/>
<path d="M61.3988 31.3691V37.5117L62.1947 37.5752V38H60.017V37.5752L60.8129 37.5117V31.3691H58.8158L58.7523 32.4531H58.2738V30.8906H63.933V32.4531H63.4594L63.391 31.3691H61.3988ZM66.4303 38.1025C65.929 38.1025 65.5367 37.9691 65.2535 37.7021C64.9703 37.4352 64.8287 37.0739 64.8287 36.6182C64.8287 36.2926 64.9231 36.0062 65.1119 35.7588C65.3007 35.5146 65.5676 35.3242 65.9127 35.1875C66.261 35.0508 66.6728 34.9824 67.148 34.9824H68.2418V34.377C68.2418 33.9961 68.1279 33.6901 67.9 33.459C67.6754 33.2246 67.3352 33.1074 66.8795 33.1074C66.6223 33.1074 66.3912 33.1497 66.1861 33.2344C65.9843 33.3158 65.8085 33.4199 65.6588 33.5469L65.61 34.3525H65.1266V33.249C65.3544 33.0537 65.6132 32.9007 65.9029 32.79C66.1926 32.6761 66.5214 32.6191 66.8893 32.6191C67.511 32.6191 67.9895 32.7754 68.3248 33.0879C68.6601 33.4004 68.8277 33.8333 68.8277 34.3867V36.9355C68.8277 37.0397 68.831 37.1439 68.8375 37.248C68.844 37.349 68.8554 37.4499 68.8717 37.5508L69.5016 37.5752V38H68.3492C68.3102 37.8079 68.2825 37.6533 68.2662 37.5361C68.2532 37.4189 68.2451 37.2871 68.2418 37.1406C68.0497 37.4238 67.7958 37.6549 67.4801 37.834C67.1643 38.013 66.8144 38.1025 66.4303 38.1025ZM66.4986 37.5898C66.86 37.5898 67.2018 37.4954 67.524 37.3066C67.8495 37.1146 68.0888 36.8607 68.2418 36.5449V35.4316H67.1432C66.6028 35.4316 66.1796 35.5488 65.8736 35.7832C65.5676 36.0143 65.4146 36.2992 65.4146 36.6377C65.4146 36.9209 65.5123 37.1504 65.7076 37.3262C65.9029 37.502 66.1666 37.5898 66.4986 37.5898ZM72.4773 38.0928C72.1062 38.0928 71.8182 37.9788 71.6131 37.751C71.408 37.5199 71.3055 37.1488 71.3055 36.6377V33.1904H70.3924V32.7168H71.3055V31.3594H71.8914V32.7168H73.1219V33.1904H71.8914V36.6377C71.8914 36.9893 71.9533 37.2432 72.077 37.3994C72.2039 37.5524 72.3715 37.6289 72.5799 37.6289C72.6906 37.6289 72.7996 37.6224 72.907 37.6094C73.0145 37.5931 73.1251 37.5768 73.2391 37.5605L73.327 37.9805C73.2098 38.0163 73.0763 38.0439 72.9266 38.0635C72.7768 38.083 72.6271 38.0928 72.4773 38.0928ZM76.3125 38.0928C75.9414 38.0928 75.6533 37.9788 75.4482 37.751C75.2432 37.5199 75.1406 37.1488 75.1406 36.6377V33.1904H74.2275V32.7168H75.1406V31.3594H75.7266V32.7168H76.957V33.1904H75.7266V36.6377C75.7266 36.9893 75.7884 37.2432 75.9121 37.3994C76.0391 37.5524 76.2067 37.6289 76.415 37.6289C76.5257 37.6289 76.6348 37.6224 76.7422 37.6094C76.8496 37.5931 76.9603 37.5768 77.0742 37.5605L77.1621 37.9805C77.0449 38.0163 76.9115 38.0439 76.7617 38.0635C76.612 38.083 76.4622 38.0928 76.3125 38.0928ZM80.6311 38.1025C80.1525 38.1025 79.7408 37.9886 79.3957 37.7607C79.0441 37.5361 78.7707 37.2236 78.5754 36.8232C78.3833 36.4196 78.2873 35.959 78.2873 35.4414V35.2803C78.2873 34.7627 78.385 34.3037 78.5803 33.9033C78.7723 33.5029 79.0425 33.1888 79.3908 32.9609C79.7424 32.7331 80.1525 32.6191 80.6213 32.6191C81.0965 32.6191 81.5083 32.7331 81.8566 32.9609C82.2049 33.1888 82.4751 33.5029 82.6672 33.9033C82.8625 34.3005 82.9602 34.7594 82.9602 35.2803V35.4414C82.9602 35.959 82.8641 36.4196 82.6721 36.8232C82.4768 37.2236 82.2033 37.5378 81.8518 37.7656C81.5034 37.9902 81.0965 38.1025 80.6311 38.1025ZM80.6311 37.6143C80.9924 37.6143 81.3033 37.5182 81.5637 37.3262C81.8241 37.1341 82.0243 36.8737 82.1643 36.5449C82.3042 36.2161 82.3742 35.8483 82.3742 35.4414V35.2803C82.3742 34.8701 82.3042 34.5039 82.1643 34.1816C82.0243 33.8529 81.8225 33.5924 81.5588 33.4004C81.2984 33.2083 80.9859 33.1123 80.6213 33.1123C80.2567 33.1123 79.9442 33.2083 79.6838 33.4004C79.4201 33.5924 79.2183 33.8529 79.0783 34.1816C78.9416 34.5104 78.8732 34.8766 78.8732 35.2803V35.4414C78.8732 35.8548 78.9432 36.2227 79.0832 36.5449C79.2199 36.8704 79.4185 37.1309 79.6789 37.3262C79.9426 37.5182 80.26 37.6143 80.6311 37.6143ZM86.5072 38.1025C86.0287 38.1025 85.6169 37.9886 85.2719 37.7607C84.9203 37.5361 84.6469 37.2236 84.4516 36.8232C84.2595 36.4196 84.1635 35.959 84.1635 35.4414V35.2803C84.1635 34.7627 84.2611 34.3037 84.4564 33.9033C84.6485 33.5029 84.9187 33.1888 85.267 32.9609C85.6186 32.7331 86.0287 32.6191 86.4975 32.6191C86.9727 32.6191 87.3845 32.7331 87.7328 32.9609C88.0811 33.1888 88.3513 33.5029 88.5434 33.9033C88.7387 34.3005 88.8363 34.7594 88.8363 35.2803V35.4414C88.8363 35.959 88.7403 36.4196 88.5482 36.8232C88.3529 37.2236 88.0795 37.5378 87.7279 37.7656C87.3796 37.9902 86.9727 38.1025 86.5072 38.1025ZM86.5072 37.6143C86.8686 37.6143 87.1794 37.5182 87.4398 37.3262C87.7003 37.1341 87.9005 36.8737 88.0404 36.5449C88.1804 36.2161 88.2504 35.8483 88.2504 35.4414V35.2803C88.2504 34.8701 88.1804 34.5039 88.0404 34.1816C87.9005 33.8529 87.6986 33.5924 87.435 33.4004C87.1745 33.2083 86.862 33.1123 86.4975 33.1123C86.1329 33.1123 85.8204 33.2083 85.56 33.4004C85.2963 33.5924 85.0945 33.8529 84.9545 34.1816C84.8178 34.5104 84.7494 34.8766 84.7494 35.2803V35.4414C84.7494 35.8548 84.8194 36.2227 84.9594 36.5449C85.0961 36.8704 85.2947 37.1309 85.5551 37.3262C85.8187 37.5182 86.1361 37.6143 86.5072 37.6143ZM97.0633 38.1025C96.3634 38.1025 95.7726 37.9479 95.2908 37.6387C94.809 37.3294 94.4445 36.9046 94.1971 36.3643C93.9529 35.8206 93.8309 35.1973 93.8309 34.4941V34.4014C93.8309 33.6852 93.9594 33.0586 94.2166 32.5215C94.4705 31.9779 94.8318 31.5531 95.3006 31.2471C95.7693 30.9411 96.3195 30.7881 96.951 30.7881C97.4393 30.7881 97.8592 30.8564 98.2107 30.9932C98.5656 31.1299 98.8797 31.3171 99.1531 31.5547V32.9365H98.6551L98.6062 31.8037C98.463 31.693 98.3133 31.6019 98.157 31.5303C97.9975 31.4554 97.8201 31.3984 97.6248 31.3594C97.4327 31.3171 97.2081 31.2959 96.951 31.2959C96.4334 31.2959 95.9858 31.4261 95.6082 31.6865C95.2273 31.9502 94.9327 32.3148 94.7244 32.7803C94.5193 33.2425 94.4168 33.7796 94.4168 34.3916V34.4941C94.4168 35.1224 94.5226 35.6709 94.7342 36.1396C94.9458 36.6051 95.2485 36.9648 95.6424 37.2188C96.0363 37.4727 96.5115 37.5996 97.0682 37.5996C97.3676 37.5996 97.6557 37.5622 97.9324 37.4873C98.2124 37.4124 98.4484 37.3132 98.6404 37.1895L98.6893 36.1152H99.1824V37.5312C98.8927 37.7201 98.5656 37.8633 98.201 37.9609C97.8396 38.0553 97.4604 38.1025 97.0633 38.1025ZM102.856 38.1025C102.378 38.1025 101.966 37.9886 101.621 37.7607C101.27 37.5361 100.996 37.2236 100.801 36.8232C100.609 36.4196 100.513 35.959 100.513 35.4414V35.2803C100.513 34.7627 100.61 34.3037 100.806 33.9033C100.998 33.5029 101.268 33.1888 101.616 32.9609C101.968 32.7331 102.378 32.6191 102.847 32.6191C103.322 32.6191 103.734 32.7331 104.082 32.9609C104.43 33.1888 104.701 33.5029 104.893 33.9033C105.088 34.3005 105.186 34.7594 105.186 35.2803V35.4414C105.186 35.959 105.09 36.4196 104.897 36.8232C104.702 37.2236 104.429 37.5378 104.077 37.7656C103.729 37.9902 103.322 38.1025 102.856 38.1025ZM102.856 37.6143C103.218 37.6143 103.529 37.5182 103.789 37.3262C104.049 37.1341 104.25 36.8737 104.39 36.5449C104.53 36.2161 104.6 35.8483 104.6 35.4414V35.2803C104.6 34.8701 104.53 34.5039 104.39 34.1816C104.25 33.8529 104.048 33.5924 103.784 33.4004C103.524 33.2083 103.211 33.1123 102.847 33.1123C102.482 33.1123 102.17 33.2083 101.909 33.4004C101.646 33.5924 101.444 33.8529 101.304 34.1816C101.167 34.5104 101.099 34.8766 101.099 35.2803V35.4414C101.099 35.8548 101.169 36.2227 101.309 36.5449C101.445 36.8704 101.644 37.1309 101.904 37.3262C102.168 37.5182 102.485 37.6143 102.856 37.6143ZM107.683 30.3828V37.5117L108.479 37.5752V38H106.301V37.5752L107.097 37.5117V30.876L106.301 30.8125V30.3828H107.683ZM110.981 30.3828V37.5117L111.777 37.5752V38H109.599V37.5752L110.395 37.5117V30.876L109.599 30.8125V30.3828H110.981ZM115.295 38.1025C114.845 38.1025 114.447 37.9919 114.098 37.7705C113.753 37.5492 113.483 37.2448 113.288 36.8574C113.092 36.4701 112.995 36.0225 112.995 35.5146V35.2461C112.995 34.7383 113.092 34.2874 113.288 33.8936C113.483 33.4964 113.747 33.1855 114.079 32.9609C114.414 32.7331 114.787 32.6191 115.197 32.6191C115.633 32.6191 116.004 32.7119 116.31 32.8975C116.945 33.2816 117.262 33.9391 117.262 34.8701V35.3682H113.6L113.59 35.583C113.594 35.9704 113.667 36.3187 113.81 36.6279C113.953 36.9339 114.152 37.1748 114.406 37.3506C114.66 37.5264 114.956 37.6143 115.295 37.6143C115.627 37.6143 115.918 37.5622 116.169 37.458C116.422 37.3506 116.645 37.2057 116.837 37.0234L117.087 37.4238C116.881 37.6191 116.632 37.7819 116.339 37.9121C116.05 38.0391 115.701 38.1025 115.295 38.1025ZM113.629 34.8506L113.639 34.8799H116.676V34.7334C116.676 34.4242 116.618 34.1458 116.501 33.8984C116.38 33.6543 116.209 33.4622 115.988 33.3223C115.77 33.1823 115.506 33.1123 115.197 33.1123C114.914 33.1123 114.661 33.1872 114.44 33.3369C114.215 33.4867 114.032 33.6934 113.888 33.957C113.748 34.2207 113.662 34.5186 113.629 34.8506ZM120.761 38.1025C120.324 38.1025 119.937 37.9919 119.598 37.7705C119.263 37.5492 118.999 37.2399 118.807 36.8428C118.615 36.4456 118.519 35.985 118.519 35.4609V35.2559C118.519 34.7383 118.612 34.2826 118.798 33.8887C118.98 33.4915 119.239 33.1807 119.574 32.9561C119.909 32.7314 120.303 32.6191 120.756 32.6191C121.166 32.6191 121.53 32.6973 121.849 32.8535C122.168 33.0065 122.435 33.2051 122.65 33.4492L122.66 34.6455H122.172L122.094 33.6592C121.931 33.4867 121.74 33.3532 121.522 33.2588C121.304 33.1611 121.054 33.1123 120.77 33.1123C120.438 33.1123 120.147 33.2051 119.896 33.3906C119.646 33.5762 119.45 33.8317 119.31 34.1572C119.174 34.4795 119.105 34.8457 119.105 35.2559V35.4609C119.105 35.8906 119.174 36.2666 119.31 36.5889C119.447 36.9144 119.639 37.1667 119.887 37.3457C120.134 37.5247 120.427 37.6143 120.765 37.6143C121.159 37.6143 121.488 37.5117 121.752 37.3066C122.015 37.0983 122.175 36.7923 122.23 36.3887H122.753L122.762 36.418C122.733 36.75 122.636 37.043 122.47 37.2969C122.3 37.5508 122.071 37.7493 121.781 37.8926C121.495 38.0326 121.154 38.1025 120.761 38.1025ZM125.934 38.0928C125.562 38.0928 125.274 37.9788 125.069 37.751C124.864 37.5199 124.762 37.1488 124.762 36.6377V33.1904H123.849V32.7168H124.762V31.3594H125.348V32.7168H126.578V33.1904H125.348V36.6377C125.348 36.9893 125.41 37.2432 125.533 37.3994C125.66 37.5524 125.828 37.6289 126.036 37.6289C126.147 37.6289 126.256 37.6224 126.363 37.6094C126.471 37.5931 126.581 37.5768 126.695 37.5605L126.783 37.9805C126.666 38.0163 126.533 38.0439 126.383 38.0635C126.233 38.083 126.083 38.0928 125.934 38.0928ZM128.572 31.2275V30.3828H129.227V31.2275H128.572ZM129.227 32.7168V37.5117L130.023 37.5752V38H127.845V37.5752L128.641 37.5117V33.21L127.845 33.1465V32.7168H129.227ZM136.48 32.7168V33.1465L135.909 33.1807L134.038 38H133.511L131.592 33.1807L131.031 33.1465V32.7168H132.891V33.1465L132.198 33.1904L133.565 36.6768L133.76 37.2578H133.789L133.999 36.6768L135.323 33.1904L134.62 33.1465V32.7168H136.48ZM139.675 38.1025C139.226 38.1025 138.827 37.9919 138.479 37.7705C138.134 37.5492 137.864 37.2448 137.669 36.8574C137.473 36.4701 137.376 36.0225 137.376 35.5146V35.2461C137.376 34.7383 137.473 34.2874 137.669 33.8936C137.864 33.4964 138.128 33.1855 138.46 32.9609C138.795 32.7331 139.168 32.6191 139.578 32.6191C140.014 32.6191 140.385 32.7119 140.691 32.8975C141.326 33.2816 141.643 33.9391 141.643 34.8701V35.3682H137.981L137.971 35.583C137.975 35.9704 138.048 36.3187 138.191 36.6279C138.334 36.9339 138.533 37.1748 138.787 37.3506C139.041 37.5264 139.337 37.6143 139.675 37.6143C140.007 37.6143 140.299 37.5622 140.549 37.458C140.803 37.3506 141.026 37.2057 141.218 37.0234L141.467 37.4238C141.262 37.6191 141.013 37.7819 140.72 37.9121C140.431 38.0391 140.082 38.1025 139.675 38.1025ZM138.01 34.8506L138.02 34.8799H141.057V34.7334C141.057 34.4242 140.999 34.1458 140.881 33.8984C140.761 33.6543 140.59 33.4622 140.369 33.3223C140.151 33.1823 139.887 33.1123 139.578 33.1123C139.295 33.1123 139.042 33.1872 138.821 33.3369C138.596 33.4867 138.412 33.6934 138.269 33.957C138.129 34.2207 138.043 34.5186 138.01 34.8506Z" fill="white"/>
<path d="M55 26.5H145V25.5H55V26.5Z" fill="white" fill-opacity="0.7" mask="url(#path-3-inside-1_321_358)"/>
<path d="M65.7796 22.1436C65.137 22.1436 64.5605 22.0205 64.0501 21.7744C63.5397 21.5283 63.1068 21.1797 62.7513 20.7285C62.013 19.8079 61.6439 18.598 61.6439 17.0986V16.9551C61.6439 15.4603 62.013 14.248 62.7513 13.3184C63.1068 12.8672 63.5397 12.5186 64.0501 12.2725C64.5605 12.0264 65.137 11.9033 65.7796 11.9033C66.4586 11.9033 67.0557 12.0264 67.5706 12.2725C68.0902 12.5186 68.5231 12.8672 68.8695 13.3184C69.2204 13.7695 69.4824 14.305 69.6556 14.9248C69.8333 15.54 69.9222 16.2168 69.9222 16.9551V17.0986C69.9222 17.8415 69.8333 18.5205 69.6556 19.1357C69.4824 19.751 69.2204 20.2819 68.8695 20.7285C68.5231 21.1797 68.0902 21.5283 67.5706 21.7744C67.0557 22.0205 66.4586 22.1436 65.7796 22.1436ZM65.7796 21.0225C66.4404 21.0225 66.9759 20.8584 67.3861 20.5303C67.7917 20.2021 68.0902 19.7441 68.2816 19.1562C68.473 18.5638 68.5687 17.8779 68.5687 17.0986V16.9414C68.5687 16.1667 68.473 15.4854 68.2816 14.8975C68.0856 14.3141 67.7825 13.8584 67.3724 13.5303C66.9622 13.1976 66.4313 13.0312 65.7796 13.0312C65.1826 13.0312 64.6767 13.1976 64.262 13.5303C63.8473 13.863 63.5329 14.3232 63.3187 14.9111C63.1045 15.4945 62.9974 16.1712 62.9974 16.9414V17.0986C62.9974 17.8688 63.1045 18.5501 63.3187 19.1426C63.5329 19.735 63.8473 20.1976 64.262 20.5303C64.6767 20.8584 65.1826 21.0225 65.7796 21.0225ZM78.0887 22.1436C77.4142 22.1436 76.8035 22.0091 76.2566 21.7402C75.7189 21.4714 75.2951 21.0885 74.9852 20.5918C74.6753 20.0905 74.5203 19.4912 74.5203 18.7939V13.1064L73.4061 12.915V12.0469H76.9813V12.915L75.867 13.1064V18.7939C75.867 19.2907 75.9627 19.7077 76.1541 20.0449C76.341 20.3822 76.603 20.6374 76.9402 20.8105C77.2775 20.9792 77.6671 21.0635 78.1092 21.0635C78.5604 21.0635 78.9568 20.9792 79.2986 20.8105C79.6404 20.6419 79.907 20.389 80.0984 20.0518C80.2944 19.7145 80.3924 19.2952 80.3924 18.7939V13.1064L79.2781 12.915V12.0469H82.8533V12.915L81.7391 13.1064V18.7939C81.7391 19.5094 81.5887 20.1178 81.2879 20.6191C80.9826 21.1159 80.5564 21.4941 80.0096 21.7539C79.4627 22.0137 78.8224 22.1436 78.0887 22.1436ZM93.7815 14.4463L93.5764 13.0654H91.3206V20.9473L92.4348 21.1387V22H88.8596V21.1387L89.9739 20.9473V13.0654H87.718L87.5198 14.4463H86.5081V12.0469H94.7796V14.4463H93.7815ZM100.998 13.1064V20.9678H104.518L104.676 19.3955H105.708V22H98.5369V21.1387L99.6511 20.9473V13.1064L98.5369 12.915V12.0469H102.112V12.915L100.998 13.1064ZM112.904 12.0469V12.915L111.789 13.1064V20.9473L112.904 21.1387V22H109.328V21.1387L110.443 20.9473V13.1064L109.328 12.915V12.0469H112.904ZM123.955 22L118.944 14.2002L118.903 14.2139V20.9473L120.127 21.1387V22H116.551V21.1387L117.666 20.9473V13.1064L116.551 12.915V12.0469H119.026L123.907 19.8057L123.948 19.792V13.1064L122.724 12.915V12.0469H126.3V12.915L125.185 13.1064V22H123.955ZM132.402 17.3857V20.9883H136.298L136.448 19.6143H137.522V22H129.941V21.1387L131.055 20.9473V13.1064L129.941 12.915V12.0469H137.31V14.4395H136.23L136.079 13.0859H132.402V16.3262H136.072V17.3857H132.402Z" fill="white"/>
</svg>
