<svg width="101" height="100" viewBox="0 0 101 100" fill="none" xmlns="http://www.w3.org/2000/svg">
<path d="M64.1528 82.6026C64.0762 82.6026 63.9997 82.5941 63.9231 82.577L43.1299 77.9906C42.8535 77.9289 42.6133 77.761 42.4602 77.5207C42.3092 77.2825 42.2582 76.9912 42.322 76.7148L45.0862 64.563C45.2159 63.991 45.7857 63.6316 46.3577 63.7613C46.9297 63.8911 47.289 64.4609 47.1593 65.0329L44.6332 76.1407L63.3469 80.2679L65.5646 70.3848C65.6114 70.1743 65.722 69.9829 65.8814 69.8362L70.2127 65.8409C70.6444 65.4433 71.3163 65.4688 71.716 65.9004C72.1137 66.3321 72.0881 67.004 71.6565 67.4037L67.5697 71.1758L65.1925 81.769C65.0798 82.2666 64.6397 82.6026 64.1528 82.6026Z" fill="#CECECE"/>
<path d="M73.2859 65.5614C73.1413 65.5614 72.9968 65.5316 72.8607 65.4721C72.4737 65.302 72.2228 64.9214 72.2228 64.4983C72.2228 63.9071 72.8075 63.3267 73.4029 63.3267C73.9897 63.3267 74.466 63.803 74.466 64.3898C74.466 64.7003 74.3321 64.9788 74.1216 65.1744L74.0067 65.2807C73.8069 65.4636 73.5496 65.5614 73.2859 65.5614Z" fill="#CECECE"/>
<path d="M75.6802 63.325C75.3932 63.325 75.1082 63.2102 74.8977 62.9826C74.5001 62.551 74.5256 61.8791 74.9573 61.4794L82.4312 54.5837C83.4136 53.663 84.9871 51.7557 84.9998 50.5693C85.002 50.3247 84.936 50.1525 84.7766 49.9952C83.3604 48.6088 77.1623 51.8599 73.2307 54.739C72.8735 55.0005 72.3887 55.0132 72.0187 54.7708C71.6487 54.5263 71.468 54.0798 71.5658 53.646C72.2399 50.6841 72.5822 49.3296 72.9437 47.8944C73.3179 46.4081 73.707 44.8729 74.5044 41.3645C74.6341 40.7925 75.2039 40.4332 75.7759 40.5629C76.3479 40.6926 76.7072 41.2624 76.5775 41.8344C75.7738 45.3683 75.3825 46.9163 75.0041 48.4132C74.7744 49.3233 74.5533 50.1993 74.2492 51.4836C75.1742 50.8946 76.3096 50.2121 77.5131 49.5827C81.8465 47.3139 84.7085 46.9524 86.2629 48.4748C86.837 49.0383 87.1368 49.7698 87.1261 50.5948C87.0964 53.0719 84.2067 55.8361 83.8771 56.1423L76.3989 63.0422C76.1969 63.2314 75.9396 63.325 75.6802 63.325Z" fill="#CECECE"/>
<path d="M76.1728 39.5787C76.0941 39.5787 76.0154 39.5702 75.9368 39.5511C75.5136 39.4554 75.2074 39.1194 75.1288 38.7176C75.0756 38.5389 75.0586 38.3178 75.1203 38.0456C75.25 37.4737 75.8198 37.1143 76.3918 37.244C76.8149 37.3397 77.1211 37.6757 77.1998 38.0754C77.2529 38.254 77.27 38.4773 77.2083 38.7494C77.0956 39.2449 76.6576 39.5787 76.1728 39.5787Z" fill="#CECECE"/>
<path d="M76.7742 36.7029C76.6955 36.7029 76.6169 36.6943 76.5382 36.6752C75.9662 36.5455 75.6069 35.9757 75.7366 35.4037C75.7642 35.2782 75.8004 35.1698 75.8429 35.0741C75.9917 34.5276 76.5467 34.1917 77.1038 34.3193C77.6758 34.449 78.0351 35.0188 77.9054 35.5929C77.8778 35.7163 77.8416 35.8247 77.8012 35.9204C77.6736 36.386 77.2462 36.7029 76.7742 36.7029Z" fill="#CECECE"/>
<path d="M69.1883 39.0568C69.1054 39.0568 69.0204 39.0461 68.9353 39.027C68.3654 38.8888 68.0146 38.3126 68.1549 37.7427L71.6697 23.3412C71.6867 23.2668 71.7144 23.1945 71.7463 23.1265C72.3119 21.9698 74.1235 19.9498 76.9387 20.5898C79.8411 21.2511 80.2728 24.2683 80.0942 25.7716C80.0899 25.8099 80.0835 25.846 80.075 25.8822L78.5016 32.7969C78.3719 33.3689 77.802 33.7282 77.23 33.5985C76.6581 33.4688 76.2987 32.899 76.4284 32.327L77.987 25.4782C78.0146 25.1316 78.1167 23.0393 76.4667 22.6651C74.8082 22.2887 73.9257 23.5879 73.7025 23.9791L70.2196 38.2488C70.1005 38.7314 69.6667 39.0568 69.1883 39.0568Z" fill="#CECECE"/>
<path d="M68.1678 43.0319C67.9998 43.0319 67.8318 42.9936 67.6745 42.9128C66.858 42.4939 67.0706 41.6264 67.2407 40.929C67.3811 40.3591 67.9551 40.0083 68.525 40.1486C69.0949 40.2889 69.4457 40.863 69.3054 41.4329C69.2692 41.5775 69.2458 41.6838 69.2309 41.7582C69.2883 42.0644 69.2118 42.394 68.9928 42.6491C68.7802 42.9 68.4761 43.0319 68.1678 43.0319Z" fill="#CECECE"/>
<path d="M60.4596 41.3418C60.4129 41.3418 60.3661 41.3397 60.315 41.3354C59.7877 41.2844 59.371 40.8336 59.3497 40.3042C59.3412 40.083 59.3986 39.8767 59.507 39.7003C59.5347 39.6067 59.5772 39.4473 59.641 39.1878C59.7792 38.618 60.3554 38.2671 60.9253 38.4053C61.4952 38.5436 61.846 39.1198 61.7078 39.6896C61.4973 40.538 61.3017 41.3418 60.4596 41.3418Z" fill="#CECECE"/>
<path d="M69.0785 39.269C68.9956 39.269 68.9105 39.2584 68.8276 39.2392C68.2578 39.101 67.9069 38.5269 68.0451 37.9549C70.4904 27.8847 71.46 23.1048 71.5408 22.7093C71.6003 22.2755 71.9214 19.2051 69.1508 18.5758C68.564 18.4418 67.69 18.3993 66.8884 19.5709C66.3654 20.3321 66.1612 21.1911 66.1591 21.1996L62.3466 36.8748C62.2084 37.4446 61.6322 37.7955 61.0623 37.6573C60.4925 37.5191 60.1417 36.9428 60.2799 36.373L64.0881 20.7148C64.1136 20.6021 64.3879 19.4561 65.1342 18.3695C66.2378 16.7599 67.8325 16.0965 69.6229 16.5047C73.4651 17.3786 73.9308 21.172 73.6416 23.0538C73.6395 23.0687 73.6373 23.0835 73.6331 23.0984C73.6246 23.1452 72.6699 27.9315 70.114 38.4589C69.9928 38.9437 69.5569 39.269 69.0785 39.269Z" fill="#CECECE"/>
<path d="M54.384 35.9821C54.3011 35.9821 54.2161 35.9715 54.1331 35.9524C53.5633 35.8142 53.2125 35.2379 53.3507 34.6681C54.4436 30.1709 56.4572 22.1314 56.6039 21.553C56.672 21.2043 57.0568 19.5564 58.4963 18.5974C59.4595 17.9553 60.6311 17.7852 61.9792 18.0914C63.2741 18.3869 64.2629 19.0673 64.837 20.0603C65.7768 21.6848 65.3303 23.5773 65.2091 24.0132C65.1219 24.5001 64.5308 27.7618 63.1083 33.7113C62.9722 34.2832 62.3981 34.6341 61.8261 34.498C61.2541 34.3619 60.9033 33.7878 61.0394 33.2158C62.5363 26.956 63.1189 23.6219 63.1253 23.59C63.1338 23.5454 63.1444 23.5028 63.1572 23.4582C63.2699 23.0818 63.4613 21.9145 62.9935 21.115C62.7149 20.6387 62.2301 20.3282 61.5093 20.1645C60.7438 19.9902 60.1442 20.0561 59.6807 20.3644C58.911 20.879 58.6983 21.9464 58.6962 21.957C58.692 21.9847 58.6856 22.0102 58.6792 22.0378C58.6579 22.1229 56.5486 30.5345 55.4217 35.1699C55.2984 35.6568 54.8646 35.9821 54.384 35.9821Z" fill="#CECECE"/>
<path d="M46.3073 65.3373C46.1138 65.3373 45.916 65.2842 45.7395 65.1715C42.8563 63.3471 42.0631 59.2561 43.3836 53.0154C45.6077 42.5051 49.6371 27.9122 49.6775 27.7655C49.6923 27.7102 49.7115 27.657 49.737 27.6039C50.1899 26.6194 51.6762 24.8992 54.0576 25.4393C56.5263 26.0006 56.8474 28.5309 56.6751 29.7918C56.673 29.8152 56.6688 29.8365 56.6645 29.8599C56.6602 29.8833 56.1712 32.269 55.1761 36.4068C55.0379 36.9788 54.4659 37.3296 53.8939 37.1914C53.3241 37.0532 52.9711 36.4791 53.1093 35.9092C54.0236 32.1031 54.5042 29.8025 54.5722 29.4729C54.602 29.2092 54.704 27.7655 53.5877 27.5103C52.431 27.2467 51.842 28.1716 51.7017 28.4268C51.3445 29.7259 47.5809 43.4598 45.4652 53.4513C44.3468 58.733 44.8231 62.0692 46.8771 63.3705C47.3725 63.6852 47.5214 64.3422 47.2067 64.8377C47.0047 65.1609 46.6602 65.3373 46.3073 65.3373Z" fill="#CECECE"/>
<path d="M53.2829 40.8181C53.1957 40.8181 53.1085 40.8075 53.0213 40.7862C52.4515 40.6416 52.107 40.0633 52.2516 39.4956C52.292 39.3382 52.3133 39.2596 52.3345 39.183C52.3537 39.1128 52.3728 39.0469 52.4089 38.9002C52.5514 38.3303 53.1276 37.9838 53.6975 38.1262C54.2673 38.2687 54.6139 38.8449 54.4715 39.4148C54.4289 39.5849 54.4077 39.6636 54.3843 39.7444C54.3651 39.8103 54.3481 39.8783 54.312 40.0144C54.1908 40.4971 53.7591 40.8181 53.2829 40.8181Z" fill="#CECECE"/>
<path d="M32.0481 83.6128C31.4952 83.6128 31.0296 83.1875 30.9892 82.6283L30.7765 79.7259C30.734 79.1412 31.1741 78.6309 31.7589 78.5883C32.3415 78.5416 32.8539 78.986 32.8965 79.5707L33.0325 81.4163L53.2155 80.0066C53.8023 79.9683 54.3084 80.4085 54.3509 80.9932C54.3913 81.5779 53.9512 82.0861 53.3643 82.1286L32.1246 83.6128C32.0991 83.6128 32.0736 83.6128 32.0481 83.6128Z" fill="#CECECE"/>
<path d="M31.6817 78.3547C31.131 78.3547 30.6632 77.9295 30.6228 77.3703L30.5441 76.2965C30.5016 75.7118 30.9417 75.2014 31.5265 75.1589C32.1112 75.1121 32.6215 75.5565 32.664 76.1413L32.7427 77.215C32.7852 77.7998 32.3451 78.3101 31.7603 78.3526C31.7327 78.3547 31.7072 78.3547 31.6817 78.3547Z" fill="#CECECE"/>
<path d="M31.4599 74.5104C30.9092 74.5104 30.4414 74.0852 30.401 73.526C30.3287 72.5542 30.2691 72.0801 30.2351 71.8696L16.2717 54.5359C15.2191 53.2154 14.4473 51.7887 14.0369 50.4066C13.4756 48.5163 14.409 46.3645 16.1143 45.6118C18.079 44.7442 20.739 45.9116 22.0488 46.9067C23.6117 48.0953 25.2255 49.6688 26.4588 50.9531L26.3015 48.9012C26.2568 48.3164 26.6948 47.804 27.2796 47.7593C27.8685 47.7168 28.3767 48.1527 28.4214 48.7374L28.8147 53.8703C28.8509 54.3296 28.5851 54.7591 28.1598 54.9335C27.7346 55.11 27.2434 54.9909 26.9457 54.6401C26.9138 54.6018 23.6627 50.8042 20.7624 48.5971C19.6971 47.787 17.8515 47.1682 16.9755 47.5552C16.1845 47.9061 15.8485 49.0287 16.0782 49.8006C16.4099 50.9233 17.052 52.0991 17.9323 53.2048L32.0467 70.7256C32.0808 70.7681 32.1126 70.8149 32.1403 70.8617C32.2424 71.0382 32.3678 71.2593 32.523 73.3665C32.5656 73.9512 32.1254 74.4615 31.5407 74.5041C31.513 74.5083 31.4854 74.5104 31.4599 74.5104Z" fill="#CECECE"/>
<path d="M27.1996 47.9647C26.6489 47.9647 26.1832 47.5416 26.1407 46.9823L25.8664 43.4037C25.8218 42.819 26.2598 42.3066 26.8445 42.2619C27.4293 42.2173 27.9417 42.6553 27.9863 43.24L28.2606 46.8186C28.3053 47.4033 27.8673 47.9158 27.2825 47.9604C27.2549 47.9626 27.2273 47.9647 27.1996 47.9647Z" fill="#CECECE"/>
<path d="M26.7554 42.0092C26.2047 42.0092 25.7391 41.584 25.6965 41.0269L25.6136 39.9382C25.569 39.3535 26.007 38.841 26.5917 38.7964C27.1786 38.7496 27.6889 39.1898 27.7335 39.7745L27.8165 40.8653C27.8611 41.45 27.4231 41.9625 26.8362 42.0071C26.8107 42.0071 26.7831 42.0092 26.7554 42.0092Z" fill="#CECECE"/>
<path d="M33.5089 39.795C32.9667 39.795 32.5031 39.3803 32.4521 38.8296L31.1019 24.2028C30.9424 23.7945 30.2663 22.372 28.5588 22.4996C26.8557 22.6293 26.6622 24.6982 26.6409 25.0554L27.5871 37.439C27.6318 38.0238 27.1938 38.5362 26.609 38.5808C26.0222 38.6234 25.5118 38.1875 25.4672 37.6027L24.5146 25.1553C24.5125 25.1171 24.5104 25.0809 24.5125 25.0426C24.5571 23.5287 25.4268 20.6071 28.3951 20.3818C31.2763 20.1627 32.7711 22.4251 33.1602 23.6541C33.1836 23.7264 33.1984 23.8009 33.2048 23.8774L34.5678 38.6382C34.6209 39.223 34.1914 39.7397 33.6067 39.795C33.5748 39.7928 33.5408 39.795 33.5089 39.795Z" fill="#CECECE"/>
<path d="M33.8442 43.8739C33.8293 43.8739 33.8144 43.8739 33.7996 43.8739C32.8342 43.8335 32.7577 42.9872 32.6747 42.0921C32.6216 41.5073 33.0511 40.9906 33.6358 40.9354C34.2206 40.8822 34.7373 41.3117 34.7925 41.8965C34.8181 42.1792 34.8372 42.343 34.8499 42.4323C34.9137 42.6045 34.9329 42.7959 34.8989 42.9894C34.8053 43.4976 34.3566 43.8739 33.8442 43.8739Z" fill="#CECECE"/>
<path d="M41.8077 43.4057C41.6397 43.4057 40.8508 43.3525 40.7084 42.3531C40.6892 42.2149 40.6658 42.0065 40.6403 41.7195C40.5872 41.1348 41.0167 40.6181 41.6014 40.5649C42.1861 40.5139 42.7028 40.9413 42.756 41.526C42.7687 41.6664 42.7794 41.7748 42.7879 41.8535C42.841 41.9853 42.8687 42.1277 42.8666 42.2787C42.8495 43.0782 42.235 43.3887 41.8268 43.4014C41.8247 43.4057 41.8162 43.4057 41.8077 43.4057Z" fill="#CECECE"/>
<path d="M33.551 40.0189C33.0067 40.0189 32.5431 39.6043 32.4942 39.0514C31.5119 28.2625 31.2695 23.389 31.2673 23.3422C31.2673 23.3274 31.2652 23.3125 31.2652 23.2955C31.2546 21.3903 32.2731 17.7075 36.2025 17.4077C38.0311 17.2674 39.5132 18.1562 40.3679 19.9125C40.9463 21.0969 41.0505 22.2727 41.059 22.4024L42.524 38.4348C42.5772 39.0195 42.1477 39.5362 41.5629 39.5894C40.9782 39.6425 40.4615 39.213 40.4083 38.6283L38.9412 22.581C38.9135 22.2387 38.6052 19.3597 36.3641 19.5298C33.4915 19.7488 33.3937 22.9489 33.3915 23.2657C33.4128 23.6591 33.6701 28.5283 34.6099 38.86C34.6631 39.4448 34.2314 39.9615 33.6467 40.0146C33.6148 40.0168 33.5829 40.0189 33.551 40.0189Z" fill="#CECECE"/>
<path d="M41.1852 36.3664C40.6408 36.3664 40.1752 35.9496 40.1263 35.3968C39.5925 29.3007 39.4862 25.99 39.4714 25.4946C39.4139 25.0459 39.2523 23.1089 40.4197 21.6375C41.132 20.7402 42.21 20.2129 43.5347 20.1108C44.9126 20.0045 46.048 20.3447 46.9049 21.1229C48.1871 22.2839 48.3274 23.97 48.3423 24.3251C48.387 24.7695 48.8526 29.5112 49.2587 33.7744C49.314 34.3592 48.8866 34.878 48.3019 34.9333C47.7172 34.9886 47.1984 34.5591 47.1431 33.9764C46.7199 29.5261 46.2288 24.5505 46.2245 24.5016C46.2224 24.474 46.2203 24.4463 46.2203 24.4208C46.2203 24.4165 46.1713 23.3194 45.4697 22.6921C45.0572 22.3243 44.4767 22.1733 43.6985 22.2328C42.9564 22.2903 42.429 22.5284 42.0846 22.9622C41.402 23.8212 41.5806 25.2352 41.5828 25.2501C41.5892 25.2947 41.5934 25.3394 41.5955 25.384C41.5955 25.418 41.6827 28.801 42.2441 35.2118C42.2951 35.7965 41.8634 36.3133 41.2787 36.3643C41.2468 36.3664 41.2171 36.3664 41.1852 36.3664Z" fill="#CECECE"/>
<path d="M49.7096 50.8936C49.6224 50.8936 49.5352 50.883 49.448 50.8617C48.9824 50.7427 48.6655 50.3344 48.6464 49.8751C48.6273 49.722 48.6358 49.5434 48.6889 49.3372C48.8357 48.7694 49.414 48.4271 49.9839 48.5717C50.4516 48.6929 50.7642 49.1032 50.7812 49.5625C50.8004 49.7135 50.7919 49.8879 50.7408 50.092C50.6175 50.5725 50.1837 50.8936 49.7096 50.8936Z" fill="#CECECE"/>
<path d="M49.3023 75.0467C49.2088 75.0467 49.1131 75.0339 49.0195 75.0084C48.4539 74.8532 48.1222 74.2663 48.2775 73.7007C48.5773 72.6184 48.775 71.5149 48.9834 70.3497C49.2152 69.0632 49.4533 67.7322 49.8403 66.4351C49.9296 66.1353 50.6547 63.4626 48.6793 61.8614C46.2213 59.867 47.125 55.5229 47.6119 53.1904C47.6247 53.1287 47.6332 53.0755 47.6417 53.0245L47.6629 52.899C47.765 52.3207 48.3179 51.9358 48.8962 52.0379C49.4746 52.1399 49.8594 52.6928 49.7574 53.2712L49.7404 53.369C49.7276 53.4498 49.7127 53.5327 49.6957 53.6135C49.3278 55.3804 48.5666 59.0335 50.0189 60.2114C52.3344 62.089 52.4663 65.0658 51.8773 67.0454C51.5243 68.2297 51.3053 69.4438 51.0757 70.7281C50.8673 71.8912 50.6504 73.0926 50.3251 74.2706C50.1975 74.7384 49.768 75.0467 49.3023 75.0467Z" fill="#CECECE"/>
</svg>
