<svg width="101" height="100" viewBox="0 0 101 100" fill="none" xmlns="http://www.w3.org/2000/svg">
<path d="M33.224 38.8347C26.9061 38.8347 21.7656 33.7138 21.7656 27.4179C21.7656 21.124 26.9061 16.0032 33.224 16.0032C34.1453 16.0032 35.0624 16.1125 35.9492 16.3291C36.5261 16.4707 36.8813 17.0496 36.7392 17.6243C36.5993 18.199 36.016 18.5529 35.4391 18.4113C34.7201 18.2355 33.9731 18.1476 33.224 18.1476C28.0922 18.1476 23.9182 22.3077 23.9182 27.4179C23.9182 32.5301 28.0922 36.6903 33.224 36.6903C38.3559 36.6903 42.5298 32.5301 42.5298 27.4179C42.5298 25.3807 41.8797 23.4464 40.6484 21.8274C40.2889 21.3556 40.3836 20.6823 40.8572 20.3263C41.3308 19.9682 42.0067 20.0625 42.364 20.5343C43.8816 22.5308 44.6824 24.911 44.6824 27.42C44.6846 33.7138 39.5441 38.8347 33.224 38.8347Z" fill="#CECECE"/>
<path d="M39.0497 19.6695C38.8582 19.6695 38.6644 19.618 38.4901 19.5108C38.3867 19.4464 38.3006 19.3778 38.2296 19.3092C37.8572 18.9875 37.7367 18.4386 37.9777 17.9904C38.2576 17.4672 38.9012 17.2656 39.4243 17.5444C39.5728 17.6237 39.6891 17.7138 39.7773 17.806C40.1476 18.1469 40.2401 18.7131 39.9668 19.1569C39.7623 19.4872 39.4114 19.6695 39.0497 19.6695Z" fill="#CECECE"/>
<path d="M66.2215 38.8313C59.9036 38.8313 54.761 33.7104 54.761 27.4144C54.761 21.1206 59.9014 15.9998 66.2215 15.9998C67.0998 15.9998 67.9759 16.0984 68.824 16.2957C69.4031 16.4286 69.7626 17.0055 69.6291 17.5823C69.4957 18.1592 68.9188 18.5194 68.3376 18.3843C67.6487 18.2257 66.9362 18.1442 66.2215 18.1442C61.0897 18.1442 56.9136 22.3043 56.9136 27.4144C56.9136 32.5267 61.0897 36.6869 66.2215 36.6869C71.3534 36.6869 75.5273 32.5267 75.5273 27.4144C75.5273 25.0899 74.6598 22.8683 73.0862 21.1549C72.6837 20.7175 72.7138 20.0398 73.153 19.641C73.5921 19.24 74.2723 19.27 74.6727 19.7074C76.6122 21.8154 77.6778 24.5538 77.6778 27.4144C77.6799 33.7104 72.5395 38.8313 66.2215 38.8313Z" fill="#CECECE"/>
<path d="M71.456 19.4656C71.2773 19.4656 71.0965 19.4206 70.9307 19.3284C70.8941 19.3091 70.8597 19.2876 70.8274 19.2662C70.3151 18.9981 70.1041 18.3698 70.3603 17.8466C70.6207 17.3148 71.2644 17.0939 71.8004 17.3534C71.8692 17.3855 71.9317 17.422 71.9876 17.4606C72.5043 17.7501 72.6872 18.402 72.3966 18.9188C72.1986 19.2683 71.8327 19.4656 71.456 19.4656Z" fill="#CECECE"/>
<path d="M44.0139 27.0721C43.9321 27.0721 43.8481 27.0636 43.7642 27.0421C43.1851 26.9049 42.8278 26.3259 42.9656 25.7512C43.5446 23.3259 45.8845 21.4774 48.7884 21.1493C51.3629 20.8598 54.7619 21.8548 56.5809 25.5239C56.8435 26.0557 56.6261 26.6969 56.0922 26.9606C55.5584 27.2222 54.9148 27.0057 54.65 26.4738C53.5242 24.2051 51.421 23.0106 49.0295 23.2808C47.0555 23.5038 45.4217 24.724 45.0579 26.2487C44.9438 26.7398 44.5025 27.0721 44.0139 27.0721Z" fill="#CECECE"/>
<path d="M64.5547 56.1384C64.0101 56.1384 63.543 55.7288 63.4849 55.1777C63.4224 54.588 63.8529 54.0626 64.4449 54.0004C65.0885 53.934 65.7451 53.8246 66.4555 53.6638C68.9159 53.1105 71.3785 52.3857 72.0652 50.177C72.4032 49.0919 72.2826 47.7624 71.7768 47.0161C71.5098 46.6215 71.1676 46.42 70.7026 46.3814C70.2893 46.3471 69.9535 46.4414 69.7081 46.6623C70.1558 46.5744 70.6359 46.6387 71.0427 46.8724C71.6885 47.2477 72.2137 48.1119 71.7466 49.4136C71.4775 50.1641 70.8468 50.801 69.9729 51.2063C68.9848 51.6652 67.8805 51.7467 67.0195 51.4272C64.9573 50.6616 63.2954 48.2256 62.0835 46.4478C61.9759 46.2892 61.8726 46.1391 61.7757 45.9975C60.3743 43.9711 59.0182 42.7959 57.5049 42.2963C57.0657 42.1505 56.6051 42.0625 56.1337 42.0325C53.6883 41.876 52.6356 43.154 52.1814 44.2563C51.2989 46.4007 52.0372 49.3128 53.8605 50.8846C55.2059 52.0447 56.4824 52.7738 57.9978 53.2542C58.564 53.4322 58.8783 54.0369 58.6996 54.6009C58.5209 55.1649 57.9139 55.4779 57.3477 55.2978C55.5632 54.7338 54.0069 53.846 52.4527 52.5058C49.932 50.3335 48.9568 46.435 50.1903 43.4414C51.1934 41.001 53.4106 39.7058 56.2714 39.8902C56.9258 39.9331 57.5695 40.0575 58.1808 40.2591C60.1612 40.9131 61.8661 42.3499 63.5451 44.7795C63.6442 44.9232 63.7496 45.0797 63.8616 45.2405C64.7915 46.6044 66.35 48.8882 67.7686 49.4157C67.8482 49.4457 67.9494 49.4629 68.0699 49.4693C67.9128 49.3599 67.7707 49.227 67.648 49.0726C67.0216 48.2813 66.9872 47.0333 67.5598 45.9696C68.2056 44.7709 69.4476 44.1255 70.8791 44.2434C72.0006 44.3356 72.9263 44.8803 73.5613 45.8152C74.5623 47.2949 74.5644 49.39 74.121 50.8117C73.092 54.112 69.8695 55.0941 66.929 55.7546C66.1347 55.9326 65.3964 56.0569 64.6666 56.132C64.6279 56.1384 64.5913 56.1384 64.5547 56.1384Z" fill="#CECECE"/>
<path d="M61.6718 56.1577C61.6396 56.1577 61.6073 56.1556 61.575 56.1534C61.1983 56.1191 60.8086 56.0719 60.4169 56.0097C59.8292 55.9175 59.4288 55.3686 59.5214 54.7831C59.6139 54.1977 60.1629 53.7988 60.7527 53.8911C61.0971 53.9447 61.4394 53.9876 61.7687 54.0176C62.3607 54.0712 62.7977 54.5923 62.746 55.182C62.6922 55.7374 62.2229 56.1577 61.6718 56.1577Z" fill="#CECECE"/>
<path d="M36.1747 56.6243C35.178 56.6243 34.218 56.5214 33.3203 56.3198C30.044 55.5821 27.8161 53.6843 26.8797 50.828C26.3544 49.2304 26.5353 47.354 27.3403 46.0524C27.9603 45.0509 28.8945 44.4291 30.0419 44.2532C30.2184 44.2253 30.3971 44.2125 30.5693 44.2125C32.5475 44.2125 33.7702 45.9537 33.7702 47.5663C33.7702 48.4069 33.4366 49.0867 32.8898 49.4727C33.0512 49.4684 33.1589 49.4405 33.2213 49.4169C34.6399 48.8894 36.1984 46.6078 37.1283 45.2439C37.2402 45.081 37.3457 44.9266 37.4447 44.7807C38.9839 42.5548 40.3594 41.1052 42.822 40.2946C43.8294 39.9623 44.7766 39.7928 45.6355 39.7928C47.6029 39.7928 50.1883 40.6763 51.3335 44.8858C52.0524 47.5299 51.0084 50.3798 48.5393 52.507C46.8151 53.9931 45.1339 54.9045 43.0846 55.462C40.5337 56.1611 38.379 56.6243 36.1747 56.6243ZM30.5714 46.3569C30.5068 46.3569 30.438 46.3633 30.3669 46.3719C29.8481 46.4512 29.4585 46.7128 29.1744 47.1739C28.7029 47.9395 28.5996 49.1661 28.9247 50.1611C29.6329 52.3205 31.2258 53.6522 33.7939 54.229C34.5451 54.3984 35.3244 54.4799 36.1747 54.4799C38.14 54.4799 40.1334 54.0467 42.5206 53.3948C44.2427 52.9252 45.6656 52.1511 47.1358 50.8859C48.0141 50.1289 49.9773 48.0853 49.2605 45.4455C48.4059 42.3018 46.785 41.9373 45.6419 41.9373C45.0134 41.9373 44.2944 42.0702 43.5044 42.3297C41.595 42.9601 40.5639 44.0581 39.2228 45.9966C39.1259 46.1382 39.0226 46.2883 38.9128 46.4469C37.7009 48.2247 36.0391 50.6586 33.9769 51.4241C33.6368 51.5506 33.2579 51.615 32.8489 51.615C31.4863 51.615 29.762 50.843 29.2476 49.4105C28.8881 48.4112 29.1335 47.7486 29.4026 47.369C29.7341 46.8994 30.2937 46.6185 30.8986 46.6185C31.0213 46.6185 31.1419 46.6292 31.2581 46.6507C31.0751 46.4577 30.8448 46.3569 30.5714 46.3569Z" fill="#CECECE"/>
<path d="M51.2222 83.9994C50.9036 83.9994 50.6216 83.993 50.3827 83.9844C48.5723 83.9158 48.4496 83.7635 48.2042 83.459C47.8318 82.998 47.905 82.3225 48.3678 81.9515C48.6412 81.7306 48.9921 81.6684 49.3085 81.7478C49.7541 81.8078 57.0042 82.6549 64.4974 78.0873C68.9469 75.3725 72.475 72.514 75.2777 69.3467C75.6717 68.9028 76.3519 68.8599 76.7975 69.2523C77.2431 69.6447 77.2861 70.3224 76.8922 70.7663C73.9431 74.0965 70.2578 77.0901 65.6211 79.9186C61.2556 82.5798 56.974 83.5169 54.1498 83.8343C52.996 83.9608 51.9972 83.9994 51.2222 83.9994Z" fill="#CECECE"/>
<path d="M77.635 69.2105C77.4069 69.2105 77.1766 69.1376 76.9807 68.9875C76.5092 68.6272 76.421 67.9539 76.7826 67.4842C76.8989 67.332 77.0151 67.1797 77.1292 67.0275C77.4822 66.5514 78.156 66.4506 78.6339 66.8023C79.1117 67.154 79.2129 67.8252 78.8599 68.3013C78.7394 68.4642 78.6145 68.6272 78.4897 68.7902C78.2787 69.0668 77.9579 69.2105 77.635 69.2105Z" fill="#CECECE"/>
<path d="M63.0554 67.1307C61.3311 67.1307 59.5337 66.541 57.7987 64.9027C56.8171 63.9742 56.0658 62.8784 55.3404 61.819C53.9606 59.8033 52.768 58.062 50.3205 57.8926C49.7285 57.8519 49.2808 57.3394 49.3217 56.7475C49.3626 56.1578 49.8749 55.7118 50.4712 55.7525C53.9584 55.9948 55.6375 58.4459 57.1185 60.6096C57.8116 61.6217 58.4639 62.576 59.2797 63.3458C62.5517 66.4338 65.9765 64.6346 69.4917 62.3466C69.6316 62.2543 69.7673 62.1664 69.8986 62.0828C72.6668 60.2965 75.5664 55.3494 76.8429 52.7074C79.0795 48.0777 80.1515 44.4686 80.9329 41.831C81.7595 39.0454 82.2159 37.5122 83.4493 36.901C84.0499 36.6029 84.7473 36.6008 85.5201 36.8903C86.5728 37.287 87.0011 38.6509 86.999 41.6037C86.9968 43.6645 86.7773 45.7617 86.7665 45.8496C85.8861 54.1185 83.8928 60.5002 80.4981 65.932C80.1838 66.4338 79.5208 66.5882 79.0149 66.2751C78.5112 65.962 78.3562 65.3015 78.6705 64.7976C81.8887 59.651 83.7808 53.5566 84.6247 45.6223C84.9368 42.6845 84.9109 39.6308 84.5794 38.8396C84.4653 38.8117 84.4115 38.816 84.4051 38.8203C84.0112 39.0154 83.4708 40.8339 82.9951 42.4379C82.2374 44.9919 81.0922 48.8497 78.7803 53.636C77.0733 57.1678 74.0295 61.9691 71.0653 63.882L70.667 64.1393C68.8675 65.3144 66.0777 67.1307 63.0554 67.1307Z" fill="#CECECE"/>
<path d="M49.7638 84.0004C48.9889 84.0004 47.9901 83.9618 46.8363 83.8331C44.0121 83.5158 39.7305 82.5787 35.365 79.9175C22.0532 71.7987 15.9246 61.9302 14.2112 45.8557C14.1337 45.1352 13.9894 43.3253 13.9937 41.6398C13.9981 38.747 14.4027 37.381 15.3865 36.9264C16.1141 36.5897 16.7728 36.5533 17.3454 36.8127C18.4648 37.321 18.8565 38.6784 19.5712 41.1401C20.3397 43.7928 21.5021 47.8028 24.1972 53.1724C25.8332 56.4319 28.5993 60.4548 31.092 62.0931L31.4967 62.3612C35.6147 65.0825 38.3571 66.5085 41.7023 63.3519C42.5181 62.5821 43.1704 61.6278 43.8635 60.6157C45.3445 58.4519 47.0236 56.0009 50.5108 55.7586C51.1071 55.7157 51.6172 56.1639 51.6603 56.7536C51.7012 57.3433 51.2534 57.8558 50.6615 57.8987C48.2139 58.0681 47.0236 59.8094 45.6416 61.8251C44.9161 62.8844 44.1649 63.9802 43.1833 64.9088C38.3549 69.4678 33.8926 66.5192 30.3085 64.1496L29.9059 63.8837C26.888 61.898 23.9087 57.3883 22.2727 54.131C19.4894 48.5855 18.2947 44.464 17.5047 41.7341C17.1366 40.4647 16.7577 39.1544 16.4736 38.8006C16.4628 38.8049 16.4477 38.8092 16.4348 38.8135C16.0559 39.6305 16.0732 42.9993 16.353 45.6284C17.9868 60.9566 23.8205 70.362 36.4886 78.0883C43.9797 82.658 51.2319 81.811 51.6775 81.7488C51.9961 81.6673 52.347 81.7338 52.6204 81.9547C53.0832 82.3278 53.1542 83.0011 52.7797 83.4622C52.5343 83.7645 52.4116 83.9146 50.6034 83.9854C50.3666 83.994 50.0846 84.0004 49.7638 84.0004Z" fill="#CECECE"/>
</svg>
