<svg width="101" height="100" viewBox="0 0 101 100" fill="none" xmlns="http://www.w3.org/2000/svg">
<path d="M67.6449 47.3806L70.6291 29.3625M17.8767 61.0067V23.1712C17.8767 21.7954 18.7096 19.0437 22.0414 19.0437C25.3731 19.0437 61.3743 19.0437 78.9584 19.0437C80.3466 19.0437 83.1231 19.8692 83.1231 23.1712C83.1231 26.4732 83.1231 50.2293 83.1231 61.6946C83.1231 63.0704 82.2901 65.8221 78.9584 65.8221C75.6267 65.8221 78.2643 65.8221 74.0996 65.8221C69.5499 65.8221 71.4617 74.13 71.693 76.1938L72.7114 80.9563C72.7114 80.9563 53.2763 65.8221 52.5822 65.8221C51.8881 65.8221 21.3473 65.8221 21.3473 65.8221C20.1904 65.5928 17.8767 64.3087 17.8767 61.0067ZM44.947 56.8792C40.0882 52.981 30.2319 43.8087 29.6766 38.3054C29.6766 32.1141 33.1471 30.0504 36.6177 30.0504C39.3941 30.0504 43.3274 33.2607 44.947 34.8658C46.3352 33.2607 49.8058 30.0504 52.5822 30.0504C56.0528 30.0504 59.5233 32.8021 59.5233 38.3054C59.5233 42.7081 49.8058 52.5224 44.947 56.8792Z" stroke="#CECECE" stroke-width="2.18002" stroke-linecap="round"/>
<circle cx="66.3822" cy="53.1561" r="0.952502" fill="#CECECE"/>
</svg>
